{
    "asset" : {
        "generator" : "Khronos glTF Blender I/O v1.3.48",
        "version" : "2.0"
    },
    "scene" : 0,
    "scenes" : [
        {
            "name" : "Scene",
            "nodes" : [
                8
            ]
        }
    ],
    "nodes" : [
        {
            "name" : "Bone.006",
            "rotation" : [
                0.015402445569634438,
                9.533200617806159e-11,
                -3.544028848168068e-09,
                0.999881386756897
            ],
            "scale" : [
                1,
                1.0000001192092896,
                1.0000001192092896
            ],
            "translation" : [
                1.303978931397557e-14,
                0.7140605449676514,
                6.305270972006838e-09
            ]
        },
        {
            "children" : [
                0
            ],
            "name" : "Bone.005",
            "rotation" : [
                0.0147207947447896,
                -1.1805433075551264e-07,
                -6.04373440182826e-10,
                0.9998916387557983
            ],
            "scale" : [
                1,
                0.9999998807907104,
                0.9999999403953552
            ],
            "translation" : [
                -2.6472667984047023e-15,
                0.8690183758735657,
                6.51602860557432e-09
            ]
        },
        {
            "children" : [
                1
            ],
            "name" : "Bone.004",
            "rotation" : [
                -0.0075632426887750626,
                0,
                0,
                0.9999713897705078
            ],
            "translation" : [
                -4.1359030627651384e-25,
                0.8273031711578369,
                4.1097791836364195e-10
            ]
        },
        {
            "children" : [
                2
            ],
            "name" : "Bone.003",
            "rotation" : [
                0.00024903996381908655,
                0,
                0,
                1
            ],
            "scale" : [
                1,
                0.9999999403953552,
                1
            ],
            "translation" : [
                -4.1359030627651384e-25,
                0.8837881088256836,
                1.1875145311535107e-10
            ]
        },
        {
            "children" : [
                3
            ],
            "name" : "Bone.002",
            "rotation" : [
                0.01067396067082882,
                0,
                0,
                0.9999431371688843
            ],
            "scale" : [
                1,
                1,
                0.9999999403953552
            ],
            "translation" : [
                0,
                0.9093993306159973,
                9.313225746154785e-10
            ]
        },
        {
            "children" : [
                4
            ],
            "name" : "Bone.001",
            "rotation" : [
                -0.007048140279948711,
                0,
                0,
                0.9999752640724182
            ],
            "translation" : [
                4.1359030627651384e-25,
                1,
                0
            ]
        },
        {
            "children" : [
                5
            ],
            "name" : "Bone",
            "translation" : [
                5.8187457707226196e-18,
                -8.877752320172322e-17,
                1.9721522630525295e-31
            ]
        },
        {
            "mesh" : 0,
            "name" : "Fish_Barracuda",
            "skin" : 0
        },
        {
            "children" : [
                7,
                6
            ],
            "name" : "Armature",
            "rotation" : [
                0.7071068286895752,
                0,
                0,
                0.7071068286895752
            ],
            "scale" : [
                0.5753027200698853,
                0.5753027200698853,
                0.5753027200698853
            ],
            "translation" : [
                0,
                0.006287187337875366,
                -1.7585166692733765
            ]
        }
    ],
    "animations" : [
        {
            "channels" : [
                {
                    "sampler" : 0,
                    "target" : {
                        "node" : 6,
                        "path" : "translation"
                    }
                },
                {
                    "sampler" : 1,
                    "target" : {
                        "node" : 6,
                        "path" : "rotation"
                    }
                },
                {
                    "sampler" : 2,
                    "target" : {
                        "node" : 6,
                        "path" : "scale"
                    }
                },
                {
                    "sampler" : 3,
                    "target" : {
                        "node" : 5,
                        "path" : "translation"
                    }
                },
                {
                    "sampler" : 4,
                    "target" : {
                        "node" : 5,
                        "path" : "rotation"
                    }
                },
                {
                    "sampler" : 5,
                    "target" : {
                        "node" : 5,
                        "path" : "scale"
                    }
                },
                {
                    "sampler" : 6,
                    "target" : {
                        "node" : 4,
                        "path" : "translation"
                    }
                },
                {
                    "sampler" : 7,
                    "target" : {
                        "node" : 4,
                        "path" : "rotation"
                    }
                },
                {
                    "sampler" : 8,
                    "target" : {
                        "node" : 4,
                        "path" : "scale"
                    }
                },
                {
                    "sampler" : 9,
                    "target" : {
                        "node" : 3,
                        "path" : "translation"
                    }
                },
                {
                    "sampler" : 10,
                    "target" : {
                        "node" : 3,
                        "path" : "rotation"
                    }
                },
                {
                    "sampler" : 11,
                    "target" : {
                        "node" : 3,
                        "path" : "scale"
                    }
                },
                {
                    "sampler" : 12,
                    "target" : {
                        "node" : 2,
                        "path" : "translation"
                    }
                },
                {
                    "sampler" : 13,
                    "target" : {
                        "node" : 2,
                        "path" : "rotation"
                    }
                },
                {
                    "sampler" : 14,
                    "target" : {
                        "node" : 2,
                        "path" : "scale"
                    }
                },
                {
                    "sampler" : 15,
                    "target" : {
                        "node" : 1,
                        "path" : "translation"
                    }
                },
                {
                    "sampler" : 16,
                    "target" : {
                        "node" : 1,
                        "path" : "rotation"
                    }
                },
                {
                    "sampler" : 17,
                    "target" : {
                        "node" : 1,
                        "path" : "scale"
                    }
                },
                {
                    "sampler" : 18,
                    "target" : {
                        "node" : 0,
                        "path" : "translation"
                    }
                },
                {
                    "sampler" : 19,
                    "target" : {
                        "node" : 0,
                        "path" : "rotation"
                    }
                },
                {
                    "sampler" : 20,
                    "target" : {
                        "node" : 0,
                        "path" : "scale"
                    }
                }
            ],
            "name" : "ArmatureAction",
            "samplers" : [
                {
                    "input" : 7,
                    "interpolation" : "LINEAR",
                    "output" : 8
                },
                {
                    "input" : 7,
                    "interpolation" : "LINEAR",
                    "output" : 9
                },
                {
                    "input" : 7,
                    "interpolation" : "LINEAR",
                    "output" : 10
                },
                {
                    "input" : 7,
                    "interpolation" : "LINEAR",
                    "output" : 11
                },
                {
                    "input" : 7,
                    "interpolation" : "LINEAR",
                    "output" : 12
                },
                {
                    "input" : 7,
                    "interpolation" : "LINEAR",
                    "output" : 13
                },
                {
                    "input" : 7,
                    "interpolation" : "LINEAR",
                    "output" : 14
                },
                {
                    "input" : 7,
                    "interpolation" : "LINEAR",
                    "output" : 15
                },
                {
                    "input" : 7,
                    "interpolation" : "LINEAR",
                    "output" : 16
                },
                {
                    "input" : 7,
                    "interpolation" : "LINEAR",
                    "output" : 17
                },
                {
                    "input" : 7,
                    "interpolation" : "LINEAR",
                    "output" : 18
                },
                {
                    "input" : 7,
                    "interpolation" : "LINEAR",
                    "output" : 19
                },
                {
                    "input" : 7,
                    "interpolation" : "LINEAR",
                    "output" : 20
                },
                {
                    "input" : 7,
                    "interpolation" : "LINEAR",
                    "output" : 21
                },
                {
                    "input" : 7,
                    "interpolation" : "LINEAR",
                    "output" : 22
                },
                {
                    "input" : 7,
                    "interpolation" : "LINEAR",
                    "output" : 23
                },
                {
                    "input" : 7,
                    "interpolation" : "LINEAR",
                    "output" : 24
                },
                {
                    "input" : 7,
                    "interpolation" : "LINEAR",
                    "output" : 25
                },
                {
                    "input" : 7,
                    "interpolation" : "LINEAR",
                    "output" : 26
                },
                {
                    "input" : 7,
                    "interpolation" : "LINEAR",
                    "output" : 27
                },
                {
                    "input" : 7,
                    "interpolation" : "LINEAR",
                    "output" : 28
                }
            ]
        }
    ],
    "materials" : [
        {
            "doubleSided" : true,
            "emissiveFactor" : [
                0,
                0,
                0
            ],
            "name" : "FishCudaTex",
            "pbrMetallicRoughness" : {
                "baseColorTexture" : {
                    "index" : 0,
                    "texCoord" : 0
                },
                "metallicFactor" : 0,
                "roughnessFactor" : 0.5
            }
        }
    ],
    "meshes" : [
        {
            "name" : "Cylinder",
            "primitives" : [
                {
                    "attributes" : {
                        "POSITION" : 0,
                        "NORMAL" : 1,
                        "TEXCOORD_0" : 2,
                        "JOINTS_0" : 3,
                        "WEIGHTS_0" : 4
                    },
                    "indices" : 5,
                    "material" : 0
                }
            ]
        }
    ],
    "textures" : [
        {
            "source" : 0
        }
    ],
    "images" : [
        {
            "bufferView" : 6,
            "mimeType" : "image/png",
            "name" : "FishBarracuda_DefaultMaterial_Diffuse"
        }
    ],
    "skins" : [
        {
            "inverseBindMatrices" : 6,
            "joints" : [
                6,
                5,
                4,
                3,
                2,
                1,
                0
            ],
            "name" : "Armature"
        }
    ],
    "accessors" : [
        {
            "bufferView" : 0,
            "componentType" : 5126,
            "count" : 199,
            "max" : [
                0.2307988852262497,
                0.39022576808929443,
                1.928147554397583
            ],
            "min" : [
                -0.2307986319065094,
                -0.35117408633232117,
                -1.8843061923980713
            ],
            "type" : "VEC3"
        },
        {
            "bufferView" : 1,
            "componentType" : 5126,
            "count" : 199,
            "type" : "VEC3"
        },
        {
            "bufferView" : 2,
            "componentType" : 5126,
            "count" : 199,
            "type" : "VEC2"
        },
        {
            "bufferView" : 3,
            "componentType" : 5123,
            "count" : 199,
            "type" : "VEC4"
        },
        {
            "bufferView" : 4,
            "componentType" : 5126,
            "count" : 199,
            "type" : "VEC4"
        },
        {
            "bufferView" : 5,
            "componentType" : 5123,
            "count" : 900,
            "type" : "SCALAR"
        },
        {
            "bufferView" : 7,
            "componentType" : 5126,
            "count" : 7,
            "type" : "MAT4"
        },
        {
            "bufferView" : 8,
            "componentType" : 5126,
            "count" : 30,
            "max" : [
                1
            ],
            "min" : [
                0.03333333333333333
            ],
            "type" : "SCALAR"
        },
        {
            "bufferView" : 9,
            "componentType" : 5126,
            "count" : 30,
            "type" : "VEC3"
        },
        {
            "bufferView" : 10,
            "componentType" : 5126,
            "count" : 30,
            "type" : "VEC4"
        },
        {
            "bufferView" : 11,
            "componentType" : 5126,
            "count" : 30,
            "type" : "VEC3"
        },
        {
            "bufferView" : 12,
            "componentType" : 5126,
            "count" : 30,
            "type" : "VEC3"
        },
        {
            "bufferView" : 13,
            "componentType" : 5126,
            "count" : 30,
            "type" : "VEC4"
        },
        {
            "bufferView" : 14,
            "componentType" : 5126,
            "count" : 30,
            "type" : "VEC3"
        },
        {
            "bufferView" : 15,
            "componentType" : 5126,
            "count" : 30,
            "type" : "VEC3"
        },
        {
            "bufferView" : 16,
            "componentType" : 5126,
            "count" : 30,
            "type" : "VEC4"
        },
        {
            "bufferView" : 17,
            "componentType" : 5126,
            "count" : 30,
            "type" : "VEC3"
        },
        {
            "bufferView" : 18,
            "componentType" : 5126,
            "count" : 30,
            "type" : "VEC3"
        },
        {
            "bufferView" : 19,
            "componentType" : 5126,
            "count" : 30,
            "type" : "VEC4"
        },
        {
            "bufferView" : 20,
            "componentType" : 5126,
            "count" : 30,
            "type" : "VEC3"
        },
        {
            "bufferView" : 21,
            "componentType" : 5126,
            "count" : 30,
            "type" : "VEC3"
        },
        {
            "bufferView" : 22,
            "componentType" : 5126,
            "count" : 30,
            "type" : "VEC4"
        },
        {
            "bufferView" : 23,
            "componentType" : 5126,
            "count" : 30,
            "type" : "VEC3"
        },
        {
            "bufferView" : 24,
            "componentType" : 5126,
            "count" : 30,
            "type" : "VEC3"
        },
        {
            "bufferView" : 25,
            "componentType" : 5126,
            "count" : 30,
            "type" : "VEC4"
        },
        {
            "bufferView" : 26,
            "componentType" : 5126,
            "count" : 30,
            "type" : "VEC3"
        },
        {
            "bufferView" : 27,
            "componentType" : 5126,
            "count" : 30,
            "type" : "VEC3"
        },
        {
            "bufferView" : 28,
            "componentType" : 5126,
            "count" : 30,
            "type" : "VEC4"
        },
        {
            "bufferView" : 29,
            "componentType" : 5126,
            "count" : 30,
            "type" : "VEC3"
        }
    ],
    "bufferViews" : [
        {
            "buffer" : 0,
            "byteLength" : 2388,
            "byteOffset" : 0
        },
        {
            "buffer" : 0,
            "byteLength" : 2388,
            "byteOffset" : 2388
        },
        {
            "buffer" : 0,
            "byteLength" : 1592,
            "byteOffset" : 4776
        },
        {
            "buffer" : 0,
            "byteLength" : 1592,
            "byteOffset" : 6368
        },
        {
            "buffer" : 0,
            "byteLength" : 3184,
            "byteOffset" : 7960
        },
        {
            "buffer" : 0,
            "byteLength" : 1800,
            "byteOffset" : 11144
        },
        {
            "buffer" : 0,
            "byteLength" : 298742,
            "byteOffset" : 12944
        },
        {
            "buffer" : 0,
            "byteLength" : 448,
            "byteOffset" : 311688
        },
        {
            "buffer" : 0,
            "byteLength" : 120,
            "byteOffset" : 312136
        },
        {
            "buffer" : 0,
            "byteLength" : 360,
            "byteOffset" : 312256
        },
        {
            "buffer" : 0,
            "byteLength" : 480,
            "byteOffset" : 312616
        },
        {
            "buffer" : 0,
            "byteLength" : 360,
            "byteOffset" : 313096
        },
        {
            "buffer" : 0,
            "byteLength" : 360,
            "byteOffset" : 313456
        },
        {
            "buffer" : 0,
            "byteLength" : 480,
            "byteOffset" : 313816
        },
        {
            "buffer" : 0,
            "byteLength" : 360,
            "byteOffset" : 314296
        },
        {
            "buffer" : 0,
            "byteLength" : 360,
            "byteOffset" : 314656
        },
        {
            "buffer" : 0,
            "byteLength" : 480,
            "byteOffset" : 315016
        },
        {
            "buffer" : 0,
            "byteLength" : 360,
            "byteOffset" : 315496
        },
        {
            "buffer" : 0,
            "byteLength" : 360,
            "byteOffset" : 315856
        },
        {
            "buffer" : 0,
            "byteLength" : 480,
            "byteOffset" : 316216
        },
        {
            "buffer" : 0,
            "byteLength" : 360,
            "byteOffset" : 316696
        },
        {
            "buffer" : 0,
            "byteLength" : 360,
            "byteOffset" : 317056
        },
        {
            "buffer" : 0,
            "byteLength" : 480,
            "byteOffset" : 317416
        },
        {
            "buffer" : 0,
            "byteLength" : 360,
            "byteOffset" : 317896
        },
        {
            "buffer" : 0,
            "byteLength" : 360,
            "byteOffset" : 318256
        },
        {
            "buffer" : 0,
            "byteLength" : 480,
            "byteOffset" : 318616
        },
        {
            "buffer" : 0,
            "byteLength" : 360,
            "byteOffset" : 319096
        },
        {
            "buffer" : 0,
            "byteLength" : 360,
            "byteOffset" : 319456
        },
        {
            "buffer" : 0,
            "byteLength" : 480,
            "byteOffset" : 319816
        },
        {
            "buffer" : 0,
            "byteLength" : 360,
            "byteOffset" : 320296
        }
    ],
    "buffers" : [
        {
            "byteLength" : 320656,
            "uri" : "data:application/octet-stream;base64,"
        }
    ]
}
