{
    "asset" : {
        "generator" : "Khronos glTF Blender I/O v1.3.48",
        "version" : "2.0"
    },
    "scene" : 0,
    "scenes" : [
        {
            "name" : "Scene",
            "nodes" : [
                6
            ]
        }
    ],
    "nodes" : [
        {
            "name" : "Bone.004",
            "rotation" : [
                -0.007119026035070419,
                -7.105173671233299e-15,
                -1.697308182890822e-09,
                0.9999746680259705
            ],
            "scale" : [
                1,
                1,
                0.9999999403953552
            ],
            "translation" : [
                2.220446049250313e-15,
                0.49306389689445496,
                -4.996003610813204e-16
            ]
        },
        {
            "children" : [
                0
            ],
            "name" : "Bone.003",
            "rotation" : [
                -0.01864263415336609,
                -1.6806852576323195e-09,
                -6.271750674358145e-09,
                0.999826192855835
            ],
            "scale" : [
                1,
                0.9999999403953552,
                0.9999999403953552
            ],
            "translation" : [
                -3.552713678800501e-15,
                0.5609970092773438,
                3.7252898543727042e-09
            ]
        },
        {
            "children" : [
                1
            ],
            "name" : "Bone.002",
            "rotation" : [
                -0.014643174596130848,
                1.740537936001374e-09,
                -1.7211507774561596e-09,
                0.9998928308486938
            ],
            "translation" : [
                -1.7500482078167687e-15,
                0.6224936246871948,
                7.447385819148167e-09
            ]
        },
        {
            "children" : [
                2
            ],
            "name" : "Bone.001",
            "rotation" : [
                -0.00839599035680294,
                1.192051257703497e-07,
                -1.0008802675542938e-09,
                0.9999647736549377
            ],
            "scale" : [
                1,
                1,
                0.9999999403953552
            ],
            "translation" : [
                0,
                1,
                0
            ]
        },
        {
            "children" : [
                3
            ],
            "name" : "Bone"
        },
        {
            "mesh" : 0,
            "name" : "FishB",
            "skin" : 0
        },
        {
            "children" : [
                5,
                4
            ],
            "name" : "Armature",
            "rotation" : [
                0.722373366355896,
                0,
                0,
                0.6915032267570496
            ],
            "scale" : [
                0.46233829855918884,
                0.46233829855918884,
                0.46233829855918884
            ],
            "translation" : [
                0,
                -0.0008310973644256592,
                -0.7914307713508606
            ]
        }
    ],
    "animations" : [
        {
            "channels" : [
                {
                    "sampler" : 0,
                    "target" : {
                        "node" : 4,
                        "path" : "translation"
                    }
                },
                {
                    "sampler" : 1,
                    "target" : {
                        "node" : 4,
                        "path" : "rotation"
                    }
                },
                {
                    "sampler" : 2,
                    "target" : {
                        "node" : 4,
                        "path" : "scale"
                    }
                },
                {
                    "sampler" : 3,
                    "target" : {
                        "node" : 3,
                        "path" : "translation"
                    }
                },
                {
                    "sampler" : 4,
                    "target" : {
                        "node" : 3,
                        "path" : "rotation"
                    }
                },
                {
                    "sampler" : 5,
                    "target" : {
                        "node" : 3,
                        "path" : "scale"
                    }
                },
                {
                    "sampler" : 6,
                    "target" : {
                        "node" : 2,
                        "path" : "translation"
                    }
                },
                {
                    "sampler" : 7,
                    "target" : {
                        "node" : 2,
                        "path" : "rotation"
                    }
                },
                {
                    "sampler" : 8,
                    "target" : {
                        "node" : 2,
                        "path" : "scale"
                    }
                },
                {
                    "sampler" : 9,
                    "target" : {
                        "node" : 1,
                        "path" : "translation"
                    }
                },
                {
                    "sampler" : 10,
                    "target" : {
                        "node" : 1,
                        "path" : "rotation"
                    }
                },
                {
                    "sampler" : 11,
                    "target" : {
                        "node" : 1,
                        "path" : "scale"
                    }
                },
                {
                    "sampler" : 12,
                    "target" : {
                        "node" : 0,
                        "path" : "translation"
                    }
                },
                {
                    "sampler" : 13,
                    "target" : {
                        "node" : 0,
                        "path" : "rotation"
                    }
                },
                {
                    "sampler" : 14,
                    "target" : {
                        "node" : 0,
                        "path" : "scale"
                    }
                }
            ],
            "name" : "ArmatureAction",
            "samplers" : [
                {
                    "input" : 7,
                    "interpolation" : "LINEAR",
                    "output" : 8
                },
                {
                    "input" : 7,
                    "interpolation" : "LINEAR",
                    "output" : 9
                },
                {
                    "input" : 7,
                    "interpolation" : "LINEAR",
                    "output" : 10
                },
                {
                    "input" : 7,
                    "interpolation" : "LINEAR",
                    "output" : 11
                },
                {
                    "input" : 7,
                    "interpolation" : "LINEAR",
                    "output" : 12
                },
                {
                    "input" : 7,
                    "interpolation" : "LINEAR",
                    "output" : 13
                },
                {
                    "input" : 7,
                    "interpolation" : "LINEAR",
                    "output" : 14
                },
                {
                    "input" : 7,
                    "interpolation" : "LINEAR",
                    "output" : 15
                },
                {
                    "input" : 7,
                    "interpolation" : "LINEAR",
                    "output" : 16
                },
                {
                    "input" : 7,
                    "interpolation" : "LINEAR",
                    "output" : 17
                },
                {
                    "input" : 7,
                    "interpolation" : "LINEAR",
                    "output" : 18
                },
                {
                    "input" : 7,
                    "interpolation" : "LINEAR",
                    "output" : 19
                },
                {
                    "input" : 7,
                    "interpolation" : "LINEAR",
                    "output" : 20
                },
                {
                    "input" : 7,
                    "interpolation" : "LINEAR",
                    "output" : 21
                },
                {
                    "input" : 7,
                    "interpolation" : "LINEAR",
                    "output" : 22
                }
            ]
        }
    ],
    "materials" : [
        {
            "doubleSided" : true,
            "emissiveFactor" : [
                0,
                0,
                0
            ],
            "name" : "FishBTex",
            "pbrMetallicRoughness" : {
                "baseColorTexture" : {
                    "index" : 0,
                    "texCoord" : 0
                },
                "metallicFactor" : 0,
                "roughnessFactor" : 0.5
            }
        }
    ],
    "meshes" : [
        {
            "name" : "BezierCurve.003",
            "primitives" : [
                {
                    "attributes" : {
                        "POSITION" : 0,
                        "NORMAL" : 1,
                        "TEXCOORD_0" : 2,
                        "JOINTS_0" : 3,
                        "WEIGHTS_0" : 4
                    },
                    "indices" : 5,
                    "material" : 0
                }
            ]
        }
    ],
    "textures" : [
        {
            "source" : 0
        }
    ],
    "images" : [
        {
            "bufferView" : 6,
            "mimeType" : "image/png",
            "name" : "FishB_DefaultMaterial_Diffuse"
        }
    ],
    "skins" : [
        {
            "inverseBindMatrices" : 6,
            "joints" : [
                4,
                3,
                2,
                1,
                0
            ],
            "name" : "Armature"
        }
    ],
    "accessors" : [
        {
            "bufferView" : 0,
            "componentType" : 5126,
            "count" : 95,
            "max" : [
                0.07414945960044861,
                0.3088808059692383,
                0.7850213646888733
            ],
            "min" : [
                -0.07414925843477249,
                -0.3111186623573303,
                -0.8422282338142395
            ],
            "type" : "VEC3"
        },
        {
            "bufferView" : 1,
            "componentType" : 5126,
            "count" : 95,
            "type" : "VEC3"
        },
        {
            "bufferView" : 2,
            "componentType" : 5126,
            "count" : 95,
            "type" : "VEC2"
        },
        {
            "bufferView" : 3,
            "componentType" : 5123,
            "count" : 95,
            "type" : "VEC4"
        },
        {
            "bufferView" : 4,
            "componentType" : 5126,
            "count" : 95,
            "type" : "VEC4"
        },
        {
            "bufferView" : 5,
            "componentType" : 5123,
            "count" : 396,
            "type" : "SCALAR"
        },
        {
            "bufferView" : 7,
            "componentType" : 5126,
            "count" : 5,
            "type" : "MAT4"
        },
        {
            "bufferView" : 8,
            "componentType" : 5126,
            "count" : 30,
            "max" : [
                1
            ],
            "min" : [
                0.03333333333333333
            ],
            "type" : "SCALAR"
        },
        {
            "bufferView" : 9,
            "componentType" : 5126,
            "count" : 30,
            "type" : "VEC3"
        },
        {
            "bufferView" : 10,
            "componentType" : 5126,
            "count" : 30,
            "type" : "VEC4"
        },
        {
            "bufferView" : 11,
            "componentType" : 5126,
            "count" : 30,
            "type" : "VEC3"
        },
        {
            "bufferView" : 12,
            "componentType" : 5126,
            "count" : 30,
            "type" : "VEC3"
        },
        {
            "bufferView" : 13,
            "componentType" : 5126,
            "count" : 30,
            "type" : "VEC4"
        },
        {
            "bufferView" : 14,
            "componentType" : 5126,
            "count" : 30,
            "type" : "VEC3"
        },
        {
            "bufferView" : 15,
            "componentType" : 5126,
            "count" : 30,
            "type" : "VEC3"
        },
        {
            "bufferView" : 16,
            "componentType" : 5126,
            "count" : 30,
            "type" : "VEC4"
        },
        {
            "bufferView" : 17,
            "componentType" : 5126,
            "count" : 30,
            "type" : "VEC3"
        },
        {
            "bufferView" : 18,
            "componentType" : 5126,
            "count" : 30,
            "type" : "VEC3"
        },
        {
            "bufferView" : 19,
            "componentType" : 5126,
            "count" : 30,
            "type" : "VEC4"
        },
        {
            "bufferView" : 20,
            "componentType" : 5126,
            "count" : 30,
            "type" : "VEC3"
        },
        {
            "bufferView" : 21,
            "componentType" : 5126,
            "count" : 30,
            "type" : "VEC3"
        },
        {
            "bufferView" : 22,
            "componentType" : 5126,
            "count" : 30,
            "type" : "VEC4"
        },
        {
            "bufferView" : 23,
            "componentType" : 5126,
            "count" : 30,
            "type" : "VEC3"
        }
    ],
    "bufferViews" : [
        {
            "buffer" : 0,
            "byteLength" : 1140,
            "byteOffset" : 0
        },
        {
            "buffer" : 0,
            "byteLength" : 1140,
            "byteOffset" : 1140
        },
        {
            "buffer" : 0,
            "byteLength" : 760,
            "byteOffset" : 2280
        },
        {
            "buffer" : 0,
            "byteLength" : 760,
            "byteOffset" : 3040
        },
        {
            "buffer" : 0,
            "byteLength" : 1520,
            "byteOffset" : 3800
        },
        {
            "buffer" : 0,
            "byteLength" : 792,
            "byteOffset" : 5320
        },
        {
            "buffer" : 0,
            "byteLength" : 117622,
            "byteOffset" : 6112
        },
        {
            "buffer" : 0,
            "byteLength" : 320,
            "byteOffset" : 123736
        },
        {
            "buffer" : 0,
            "byteLength" : 120,
            "byteOffset" : 124056
        },
        {
            "buffer" : 0,
            "byteLength" : 360,
            "byteOffset" : 124176
        },
        {
            "buffer" : 0,
            "byteLength" : 480,
            "byteOffset" : 124536
        },
        {
            "buffer" : 0,
            "byteLength" : 360,
            "byteOffset" : 125016
        },
        {
            "buffer" : 0,
            "byteLength" : 360,
            "byteOffset" : 125376
        },
        {
            "buffer" : 0,
            "byteLength" : 480,
            "byteOffset" : 125736
        },
        {
            "buffer" : 0,
            "byteLength" : 360,
            "byteOffset" : 126216
        },
        {
            "buffer" : 0,
            "byteLength" : 360,
            "byteOffset" : 126576
        },
        {
            "buffer" : 0,
            "byteLength" : 480,
            "byteOffset" : 126936
        },
        {
            "buffer" : 0,
            "byteLength" : 360,
            "byteOffset" : 127416
        },
        {
            "buffer" : 0,
            "byteLength" : 360,
            "byteOffset" : 127776
        },
        {
            "buffer" : 0,
            "byteLength" : 480,
            "byteOffset" : 128136
        },
        {
            "buffer" : 0,
            "byteLength" : 360,
            "byteOffset" : 128616
        },
        {
            "buffer" : 0,
            "byteLength" : 360,
            "byteOffset" : 128976
        },
        {
            "buffer" : 0,
            "byteLength" : 480,
            "byteOffset" : 129336
        },
        {
            "buffer" : 0,
            "byteLength" : 360,
            "byteOffset" : 129816
        }
    ],
    "buffers" : [
        {
            "byteLength" : 130176,
            "uri" : "data:application/octet-stream;base64,"
        }
    ]
}
