{
    "asset" : {
        "generator" : "Khronos glTF Blender I/O v1.3.48",
        "version" : "2.0"
    },
    "scene" : 0,
    "scenes" : [
        {
            "name" : "Scene",
            "nodes" : [
                8
            ]
        }
    ],
    "nodes" : [
        {
            "name" : "Bone.004",
            "rotation" : [
                0.09794241189956665,
                -1.3252546837705381e-09,
                2.218354921978971e-08,
                0.9951921701431274
            ],
            "translation" : [
                -7.447732006311304e-15,
                0.6469104886054993,
                7.336226559573333e-08
            ]
        },
        {
            "children" : [
                0
            ],
            "name" : "Bone.003",
            "rotation" : [
                0.01156358327716589,
                -1.2845055574750575e-10,
                2.6491646654136503e-09,
                0.9999331831932068
            ],
            "scale" : [
                1,
                1.0000001192092896,
                1.0000001192092896
            ],
            "translation" : [
                9.992007221626409e-16,
                0.5849708914756775,
                -7.450580596923828e-09
            ]
        },
        {
            "children" : [
                1
            ],
            "name" : "Bone.002",
            "rotation" : [
                -0.030809031799435616,
                1.3449099611761994e-09,
                -5.957499382702736e-09,
                0.9995253086090088
            ],
            "scale" : [
                1,
                0.9999999403953552,
                0.9999999403953552
            ],
            "translation" : [
                8.106207478572917e-16,
                0.8470446467399597,
                1.1067247562834837e-08
            ]
        },
        {
            "children" : [
                2
            ],
            "name" : "Bone.001",
            "rotation" : [
                -0.0157467108219862,
                2.1079504176793433e-14,
                -3.754307975611937e-09,
                0.9998760223388672
            ],
            "translation" : [
                4.440890775011646e-16,
                0.8356131315231323,
                8.881784197001252e-16
            ]
        },
        {
            "name" : "Bone.005",
            "rotation" : [
                0.13764789700508118,
                -0.14959564805030823,
                -0.7205164432525635,
                0.6629708409309387
            ],
            "scale" : [
                1,
                0.9999998807907104,
                0.9999999403953552
            ],
            "translation" : [
                -4.949892051797633e-09,
                0.8356130719184875,
                2.6645354708586125e-15
            ]
        },
        {
            "name" : "Bone.006",
            "rotation" : [
                0.14079050719738007,
                0.15477296710014343,
                0.7233584523200989,
                0.6580090522766113
            ],
            "scale" : [
                1,
                1.0000001192092896,
                1
            ],
            "translation" : [
                4.109366180671259e-09,
                0.8356130719184875,
                -3.399128312153721e-09
            ]
        },
        {
            "children" : [
                3,
                4,
                5
            ],
            "name" : "Bone",
            "rotation" : [
                -2.7652529155375305e-08,
                1.1920927533992653e-07,
                5.125506478118914e-16,
                1
            ],
            "scale" : [
                1,
                0.9999998807907104,
                0.9999998807907104
            ],
            "translation" : [
                3.9535485996111674e-11,
                -9.055298733073869e-10,
                3.9582650336026406e-17
            ]
        },
        {
            "mesh" : 0,
            "name" : "Fish_F",
            "skin" : 0
        },
        {
            "children" : [
                7,
                6
            ],
            "name" : "Armature",
            "rotation" : [
                0.7071068286895752,
                0,
                0,
                0.7071068286895752
            ],
            "scale" : [
                0.5571709275245667,
                0.5571709275245667,
                0.5571709275245667
            ],
            "translation" : [
                0,
                0.0035316646099090576,
                -0.9542812705039978
            ]
        }
    ],
    "animations" : [
        {
            "channels" : [
                {
                    "sampler" : 0,
                    "target" : {
                        "node" : 6,
                        "path" : "translation"
                    }
                },
                {
                    "sampler" : 1,
                    "target" : {
                        "node" : 6,
                        "path" : "rotation"
                    }
                },
                {
                    "sampler" : 2,
                    "target" : {
                        "node" : 6,
                        "path" : "scale"
                    }
                },
                {
                    "sampler" : 3,
                    "target" : {
                        "node" : 3,
                        "path" : "translation"
                    }
                },
                {
                    "sampler" : 4,
                    "target" : {
                        "node" : 3,
                        "path" : "rotation"
                    }
                },
                {
                    "sampler" : 5,
                    "target" : {
                        "node" : 3,
                        "path" : "scale"
                    }
                },
                {
                    "sampler" : 6,
                    "target" : {
                        "node" : 2,
                        "path" : "translation"
                    }
                },
                {
                    "sampler" : 7,
                    "target" : {
                        "node" : 2,
                        "path" : "rotation"
                    }
                },
                {
                    "sampler" : 8,
                    "target" : {
                        "node" : 2,
                        "path" : "scale"
                    }
                },
                {
                    "sampler" : 9,
                    "target" : {
                        "node" : 1,
                        "path" : "translation"
                    }
                },
                {
                    "sampler" : 10,
                    "target" : {
                        "node" : 1,
                        "path" : "rotation"
                    }
                },
                {
                    "sampler" : 11,
                    "target" : {
                        "node" : 1,
                        "path" : "scale"
                    }
                },
                {
                    "sampler" : 12,
                    "target" : {
                        "node" : 0,
                        "path" : "translation"
                    }
                },
                {
                    "sampler" : 13,
                    "target" : {
                        "node" : 0,
                        "path" : "rotation"
                    }
                },
                {
                    "sampler" : 14,
                    "target" : {
                        "node" : 0,
                        "path" : "scale"
                    }
                },
                {
                    "sampler" : 15,
                    "target" : {
                        "node" : 4,
                        "path" : "translation"
                    }
                },
                {
                    "sampler" : 16,
                    "target" : {
                        "node" : 4,
                        "path" : "rotation"
                    }
                },
                {
                    "sampler" : 17,
                    "target" : {
                        "node" : 4,
                        "path" : "scale"
                    }
                },
                {
                    "sampler" : 18,
                    "target" : {
                        "node" : 5,
                        "path" : "translation"
                    }
                },
                {
                    "sampler" : 19,
                    "target" : {
                        "node" : 5,
                        "path" : "rotation"
                    }
                },
                {
                    "sampler" : 20,
                    "target" : {
                        "node" : 5,
                        "path" : "scale"
                    }
                }
            ],
            "name" : "ArmatureAction",
            "samplers" : [
                {
                    "input" : 7,
                    "interpolation" : "LINEAR",
                    "output" : 8
                },
                {
                    "input" : 7,
                    "interpolation" : "LINEAR",
                    "output" : 9
                },
                {
                    "input" : 7,
                    "interpolation" : "LINEAR",
                    "output" : 10
                },
                {
                    "input" : 7,
                    "interpolation" : "LINEAR",
                    "output" : 11
                },
                {
                    "input" : 7,
                    "interpolation" : "LINEAR",
                    "output" : 12
                },
                {
                    "input" : 7,
                    "interpolation" : "LINEAR",
                    "output" : 13
                },
                {
                    "input" : 7,
                    "interpolation" : "LINEAR",
                    "output" : 14
                },
                {
                    "input" : 7,
                    "interpolation" : "LINEAR",
                    "output" : 15
                },
                {
                    "input" : 7,
                    "interpolation" : "LINEAR",
                    "output" : 16
                },
                {
                    "input" : 7,
                    "interpolation" : "LINEAR",
                    "output" : 17
                },
                {
                    "input" : 7,
                    "interpolation" : "LINEAR",
                    "output" : 18
                },
                {
                    "input" : 7,
                    "interpolation" : "LINEAR",
                    "output" : 19
                },
                {
                    "input" : 7,
                    "interpolation" : "LINEAR",
                    "output" : 20
                },
                {
                    "input" : 7,
                    "interpolation" : "LINEAR",
                    "output" : 21
                },
                {
                    "input" : 7,
                    "interpolation" : "LINEAR",
                    "output" : 22
                },
                {
                    "input" : 7,
                    "interpolation" : "LINEAR",
                    "output" : 23
                },
                {
                    "input" : 7,
                    "interpolation" : "LINEAR",
                    "output" : 24
                },
                {
                    "input" : 7,
                    "interpolation" : "LINEAR",
                    "output" : 25
                },
                {
                    "input" : 7,
                    "interpolation" : "LINEAR",
                    "output" : 26
                },
                {
                    "input" : 7,
                    "interpolation" : "LINEAR",
                    "output" : 27
                },
                {
                    "input" : 7,
                    "interpolation" : "LINEAR",
                    "output" : 28
                }
            ]
        }
    ],
    "materials" : [
        {
            "doubleSided" : true,
            "emissiveFactor" : [
                0,
                0,
                0
            ],
            "name" : "FishFTex",
            "pbrMetallicRoughness" : {
                "baseColorTexture" : {
                    "index" : 0,
                    "texCoord" : 0
                },
                "metallicFactor" : 0,
                "roughnessFactor" : 0.8664122223854065
            }
        }
    ],
    "meshes" : [
        {
            "name" : "Cylinder",
            "primitives" : [
                {
                    "attributes" : {
                        "POSITION" : 0,
                        "NORMAL" : 1,
                        "TEXCOORD_0" : 2,
                        "JOINTS_0" : 3,
                        "WEIGHTS_0" : 4
                    },
                    "indices" : 5,
                    "material" : 0
                }
            ]
        }
    ],
    "textures" : [
        {
            "source" : 0
        }
    ],
    "images" : [
        {
            "bufferView" : 6,
            "mimeType" : "image/png",
            "name" : "FishF_DefaultMaterial_Diffuse"
        }
    ],
    "skins" : [
        {
            "inverseBindMatrices" : 6,
            "joints" : [
                6,
                3,
                2,
                1,
                0,
                4,
                5
            ],
            "name" : "Armature"
        }
    ],
    "accessors" : [
        {
            "bufferView" : 0,
            "componentType" : 5126,
            "count" : 164,
            "max" : [
                0.18429584801197052,
                0.5274289846420288,
                1.090890645980835
            ],
            "min" : [
                -0.18399259448051453,
                -0.3540211617946625,
                -1.0468204021453857
            ],
            "type" : "VEC3"
        },
        {
            "bufferView" : 1,
            "componentType" : 5126,
            "count" : 164,
            "type" : "VEC3"
        },
        {
            "bufferView" : 2,
            "componentType" : 5126,
            "count" : 164,
            "type" : "VEC2"
        },
        {
            "bufferView" : 3,
            "componentType" : 5123,
            "count" : 164,
            "type" : "VEC4"
        },
        {
            "bufferView" : 4,
            "componentType" : 5126,
            "count" : 164,
            "type" : "VEC4"
        },
        {
            "bufferView" : 5,
            "componentType" : 5123,
            "count" : 750,
            "type" : "SCALAR"
        },
        {
            "bufferView" : 7,
            "componentType" : 5126,
            "count" : 7,
            "type" : "MAT4"
        },
        {
            "bufferView" : 8,
            "componentType" : 5126,
            "count" : 30,
            "max" : [
                1
            ],
            "min" : [
                0.03333333333333333
            ],
            "type" : "SCALAR"
        },
        {
            "bufferView" : 9,
            "componentType" : 5126,
            "count" : 30,
            "type" : "VEC3"
        },
        {
            "bufferView" : 10,
            "componentType" : 5126,
            "count" : 30,
            "type" : "VEC4"
        },
        {
            "bufferView" : 11,
            "componentType" : 5126,
            "count" : 30,
            "type" : "VEC3"
        },
        {
            "bufferView" : 12,
            "componentType" : 5126,
            "count" : 30,
            "type" : "VEC3"
        },
        {
            "bufferView" : 13,
            "componentType" : 5126,
            "count" : 30,
            "type" : "VEC4"
        },
        {
            "bufferView" : 14,
            "componentType" : 5126,
            "count" : 30,
            "type" : "VEC3"
        },
        {
            "bufferView" : 15,
            "componentType" : 5126,
            "count" : 30,
            "type" : "VEC3"
        },
        {
            "bufferView" : 16,
            "componentType" : 5126,
            "count" : 30,
            "type" : "VEC4"
        },
        {
            "bufferView" : 17,
            "componentType" : 5126,
            "count" : 30,
            "type" : "VEC3"
        },
        {
            "bufferView" : 18,
            "componentType" : 5126,
            "count" : 30,
            "type" : "VEC3"
        },
        {
            "bufferView" : 19,
            "componentType" : 5126,
            "count" : 30,
            "type" : "VEC4"
        },
        {
            "bufferView" : 20,
            "componentType" : 5126,
            "count" : 30,
            "type" : "VEC3"
        },
        {
            "bufferView" : 21,
            "componentType" : 5126,
            "count" : 30,
            "type" : "VEC3"
        },
        {
            "bufferView" : 22,
            "componentType" : 5126,
            "count" : 30,
            "type" : "VEC4"
        },
        {
            "bufferView" : 23,
            "componentType" : 5126,
            "count" : 30,
            "type" : "VEC3"
        },
        {
            "bufferView" : 24,
            "componentType" : 5126,
            "count" : 30,
            "type" : "VEC3"
        },
        {
            "bufferView" : 25,
            "componentType" : 5126,
            "count" : 30,
            "type" : "VEC4"
        },
        {
            "bufferView" : 26,
            "componentType" : 5126,
            "count" : 30,
            "type" : "VEC3"
        },
        {
            "bufferView" : 27,
            "componentType" : 5126,
            "count" : 30,
            "type" : "VEC3"
        },
        {
            "bufferView" : 28,
            "componentType" : 5126,
            "count" : 30,
            "type" : "VEC4"
        },
        {
            "bufferView" : 29,
            "componentType" : 5126,
            "count" : 30,
            "type" : "VEC3"
        }
    ],
    "bufferViews" : [
        {
            "buffer" : 0,
            "byteLength" : 1968,
            "byteOffset" : 0
        },
        {
            "buffer" : 0,
            "byteLength" : 1968,
            "byteOffset" : 1968
        },
        {
            "buffer" : 0,
            "byteLength" : 1312,
            "byteOffset" : 3936
        },
        {
            "buffer" : 0,
            "byteLength" : 1312,
            "byteOffset" : 5248
        },
        {
            "buffer" : 0,
            "byteLength" : 2624,
            "byteOffset" : 6560
        },
        {
            "buffer" : 0,
            "byteLength" : 1500,
            "byteOffset" : 9184
        },
        {
            "buffer" : 0,
            "byteLength" : 231846,
            "byteOffset" : 10684
        },
        {
            "buffer" : 0,
            "byteLength" : 448,
            "byteOffset" : 242532
        },
        {
            "buffer" : 0,
            "byteLength" : 120,
            "byteOffset" : 242980
        },
        {
            "buffer" : 0,
            "byteLength" : 360,
            "byteOffset" : 243100
        },
        {
            "buffer" : 0,
            "byteLength" : 480,
            "byteOffset" : 243460
        },
        {
            "buffer" : 0,
            "byteLength" : 360,
            "byteOffset" : 243940
        },
        {
            "buffer" : 0,
            "byteLength" : 360,
            "byteOffset" : 244300
        },
        {
            "buffer" : 0,
            "byteLength" : 480,
            "byteOffset" : 244660
        },
        {
            "buffer" : 0,
            "byteLength" : 360,
            "byteOffset" : 245140
        },
        {
            "buffer" : 0,
            "byteLength" : 360,
            "byteOffset" : 245500
        },
        {
            "buffer" : 0,
            "byteLength" : 480,
            "byteOffset" : 245860
        },
        {
            "buffer" : 0,
            "byteLength" : 360,
            "byteOffset" : 246340
        },
        {
            "buffer" : 0,
            "byteLength" : 360,
            "byteOffset" : 246700
        },
        {
            "buffer" : 0,
            "byteLength" : 480,
            "byteOffset" : 247060
        },
        {
            "buffer" : 0,
            "byteLength" : 360,
            "byteOffset" : 247540
        },
        {
            "buffer" : 0,
            "byteLength" : 360,
            "byteOffset" : 247900
        },
        {
            "buffer" : 0,
            "byteLength" : 480,
            "byteOffset" : 248260
        },
        {
            "buffer" : 0,
            "byteLength" : 360,
            "byteOffset" : 248740
        },
        {
            "buffer" : 0,
            "byteLength" : 360,
            "byteOffset" : 249100
        },
        {
            "buffer" : 0,
            "byteLength" : 480,
            "byteOffset" : 249460
        },
        {
            "buffer" : 0,
            "byteLength" : 360,
            "byteOffset" : 249940
        },
        {
            "buffer" : 0,
            "byteLength" : 360,
            "byteOffset" : 250300
        },
        {
            "buffer" : 0,
            "byteLength" : 480,
            "byteOffset" : 250660
        },
        {
            "buffer" : 0,
            "byteLength" : 360,
            "byteOffset" : 251140
        }
    ],
    "buffers" : [
        {
            "byteLength" : 251500,
            "uri" : "data:application/octet-stream;base64,"
        }
    ]
}
