{
    "asset" : {
        "generator" : "Khronos glTF Blender I/O v1.3.48",
        "version" : "2.0"
    },
    "scene" : 0,
    "scenes" : [
        {
            "name" : "Scene",
            "nodes" : [
                7
            ]
        }
    ],
    "nodes" : [
        {
            "name" : "Bone.003",
            "rotation" : [
                0.031313810497522354,
                3.5100682360678093e-09,
                3.7336413960531445e-09,
                0.9995096325874329
            ],
            "translation" : [
                -6.617444900424221e-23,
                0.6696254014968872,
                -3.725290298461914e-09
            ]
        },
        {
            "children" : [
                0
            ],
            "name" : "Bone.002",
            "rotation" : [
                0.004342639818787575,
                -1.1920816689325875e-07,
                5.176827855279953e-10,
                0.9999905824661255
            ],
            "translation" : [
                2.6645352591003757e-15,
                0.7302966713905334,
                -1.1175870895385742e-08
            ]
        },
        {
            "children" : [
                1
            ],
            "name" : "Bone.001",
            "rotation" : [
                -0.032645054161548615,
                1.1914578124105901e-07,
                -3.891594602123405e-09,
                0.9994670152664185
            ],
            "translation" : [
                1.7763568394002505e-15,
                1.0705815553665161,
                -4.2261386529028353e-22
            ]
        },
        {
            "name" : "Bone.004",
            "rotation" : [
                0.0388631671667099,
                0.03702752664685249,
                0.7383074164390564,
                0.6723249554634094
            ],
            "scale" : [
                0.9999998807907104,
                0.9999998211860657,
                1
            ],
            "translation" : [
                -1.4725509700497241e-08,
                1.0705815553665161,
                1.8249112221369046e-09
            ]
        },
        {
            "name" : "Bone.005",
            "rotation" : [
                0.04276031628251076,
                -0.04052063077688217,
                -0.7495952248573303,
                0.6592698693275452
            ],
            "scale" : [
                1.000000238418579,
                1.0000001192092896,
                1
            ],
            "translation" : [
                0,
                1.0705815553665161,
                0
            ]
        },
        {
            "children" : [
                2,
                3,
                4
            ],
            "name" : "Bone",
            "rotation" : [
                -0.0025454077403992414,
                0,
                0,
                0.9999967813491821
            ],
            "translation" : [
                7.909290444807482e-10,
                1.0408297834718638e-10,
                -8.01492205937393e-12
            ]
        },
        {
            "mesh" : 0,
            "name" : "Fish_E",
            "skin" : 0
        },
        {
            "children" : [
                6,
                5
            ],
            "name" : "Armature",
            "rotation" : [
                0.7338268756866455,
                0,
                0,
                0.6793366074562073
            ],
            "scale" : [
                0.37739208340644836,
                0.37739208340644836,
                0.37739208340644836
            ],
            "translation" : [
                0,
                0.0004334747791290283,
                -0.6830241084098816
            ]
        }
    ],
    "animations" : [
        {
            "channels" : [
                {
                    "sampler" : 0,
                    "target" : {
                        "node" : 5,
                        "path" : "translation"
                    }
                },
                {
                    "sampler" : 1,
                    "target" : {
                        "node" : 5,
                        "path" : "rotation"
                    }
                },
                {
                    "sampler" : 2,
                    "target" : {
                        "node" : 5,
                        "path" : "scale"
                    }
                },
                {
                    "sampler" : 3,
                    "target" : {
                        "node" : 2,
                        "path" : "translation"
                    }
                },
                {
                    "sampler" : 4,
                    "target" : {
                        "node" : 2,
                        "path" : "rotation"
                    }
                },
                {
                    "sampler" : 5,
                    "target" : {
                        "node" : 2,
                        "path" : "scale"
                    }
                },
                {
                    "sampler" : 6,
                    "target" : {
                        "node" : 1,
                        "path" : "translation"
                    }
                },
                {
                    "sampler" : 7,
                    "target" : {
                        "node" : 1,
                        "path" : "rotation"
                    }
                },
                {
                    "sampler" : 8,
                    "target" : {
                        "node" : 1,
                        "path" : "scale"
                    }
                },
                {
                    "sampler" : 9,
                    "target" : {
                        "node" : 0,
                        "path" : "translation"
                    }
                },
                {
                    "sampler" : 10,
                    "target" : {
                        "node" : 0,
                        "path" : "rotation"
                    }
                },
                {
                    "sampler" : 11,
                    "target" : {
                        "node" : 0,
                        "path" : "scale"
                    }
                },
                {
                    "sampler" : 12,
                    "target" : {
                        "node" : 3,
                        "path" : "translation"
                    }
                },
                {
                    "sampler" : 13,
                    "target" : {
                        "node" : 3,
                        "path" : "rotation"
                    }
                },
                {
                    "sampler" : 14,
                    "target" : {
                        "node" : 3,
                        "path" : "scale"
                    }
                },
                {
                    "sampler" : 15,
                    "target" : {
                        "node" : 4,
                        "path" : "translation"
                    }
                },
                {
                    "sampler" : 16,
                    "target" : {
                        "node" : 4,
                        "path" : "rotation"
                    }
                },
                {
                    "sampler" : 17,
                    "target" : {
                        "node" : 4,
                        "path" : "scale"
                    }
                }
            ],
            "name" : "ArmatureAction",
            "samplers" : [
                {
                    "input" : 7,
                    "interpolation" : "LINEAR",
                    "output" : 8
                },
                {
                    "input" : 7,
                    "interpolation" : "LINEAR",
                    "output" : 9
                },
                {
                    "input" : 7,
                    "interpolation" : "LINEAR",
                    "output" : 10
                },
                {
                    "input" : 7,
                    "interpolation" : "LINEAR",
                    "output" : 11
                },
                {
                    "input" : 7,
                    "interpolation" : "LINEAR",
                    "output" : 12
                },
                {
                    "input" : 7,
                    "interpolation" : "LINEAR",
                    "output" : 13
                },
                {
                    "input" : 7,
                    "interpolation" : "LINEAR",
                    "output" : 14
                },
                {
                    "input" : 7,
                    "interpolation" : "LINEAR",
                    "output" : 15
                },
                {
                    "input" : 7,
                    "interpolation" : "LINEAR",
                    "output" : 16
                },
                {
                    "input" : 7,
                    "interpolation" : "LINEAR",
                    "output" : 17
                },
                {
                    "input" : 7,
                    "interpolation" : "LINEAR",
                    "output" : 18
                },
                {
                    "input" : 7,
                    "interpolation" : "LINEAR",
                    "output" : 19
                },
                {
                    "input" : 7,
                    "interpolation" : "LINEAR",
                    "output" : 20
                },
                {
                    "input" : 7,
                    "interpolation" : "LINEAR",
                    "output" : 21
                },
                {
                    "input" : 7,
                    "interpolation" : "LINEAR",
                    "output" : 22
                },
                {
                    "input" : 7,
                    "interpolation" : "LINEAR",
                    "output" : 23
                },
                {
                    "input" : 7,
                    "interpolation" : "LINEAR",
                    "output" : 24
                },
                {
                    "input" : 7,
                    "interpolation" : "LINEAR",
                    "output" : 25
                }
            ]
        }
    ],
    "materials" : [
        {
            "doubleSided" : true,
            "emissiveFactor" : [
                0,
                0,
                0
            ],
            "name" : "FishETex",
            "pbrMetallicRoughness" : {
                "baseColorTexture" : {
                    "index" : 0,
                    "texCoord" : 0
                },
                "metallicFactor" : 0,
                "roughnessFactor" : 0.5
            }
        }
    ],
    "meshes" : [
        {
            "name" : "Cylinder",
            "primitives" : [
                {
                    "attributes" : {
                        "POSITION" : 0,
                        "NORMAL" : 1,
                        "TEXCOORD_0" : 2,
                        "JOINTS_0" : 3,
                        "WEIGHTS_0" : 4
                    },
                    "indices" : 5,
                    "material" : 0
                }
            ]
        }
    ],
    "textures" : [
        {
            "source" : 0
        }
    ],
    "images" : [
        {
            "bufferView" : 6,
            "mimeType" : "image/png",
            "name" : "FishE_DefaultMaterial_Diffuse"
        }
    ],
    "skins" : [
        {
            "inverseBindMatrices" : 6,
            "joints" : [
                5,
                2,
                1,
                0,
                3,
                4
            ],
            "name" : "Armature"
        }
    ],
    "accessors" : [
        {
            "bufferView" : 0,
            "componentType" : 5126,
            "count" : 165,
            "max" : [
                0.21748201549053192,
                0.36428356170654297,
                0.5510310530662537
            ],
            "min" : [
                -0.21700553596019745,
                -0.38994932174682617,
                -0.7512676119804382
            ],
            "type" : "VEC3"
        },
        {
            "bufferView" : 1,
            "componentType" : 5126,
            "count" : 165,
            "type" : "VEC3"
        },
        {
            "bufferView" : 2,
            "componentType" : 5126,
            "count" : 165,
            "type" : "VEC2"
        },
        {
            "bufferView" : 3,
            "componentType" : 5123,
            "count" : 165,
            "type" : "VEC4"
        },
        {
            "bufferView" : 4,
            "componentType" : 5126,
            "count" : 165,
            "type" : "VEC4"
        },
        {
            "bufferView" : 5,
            "componentType" : 5123,
            "count" : 750,
            "type" : "SCALAR"
        },
        {
            "bufferView" : 7,
            "componentType" : 5126,
            "count" : 6,
            "type" : "MAT4"
        },
        {
            "bufferView" : 8,
            "componentType" : 5126,
            "count" : 30,
            "max" : [
                1
            ],
            "min" : [
                0.03333333333333333
            ],
            "type" : "SCALAR"
        },
        {
            "bufferView" : 9,
            "componentType" : 5126,
            "count" : 30,
            "type" : "VEC3"
        },
        {
            "bufferView" : 10,
            "componentType" : 5126,
            "count" : 30,
            "type" : "VEC4"
        },
        {
            "bufferView" : 11,
            "componentType" : 5126,
            "count" : 30,
            "type" : "VEC3"
        },
        {
            "bufferView" : 12,
            "componentType" : 5126,
            "count" : 30,
            "type" : "VEC3"
        },
        {
            "bufferView" : 13,
            "componentType" : 5126,
            "count" : 30,
            "type" : "VEC4"
        },
        {
            "bufferView" : 14,
            "componentType" : 5126,
            "count" : 30,
            "type" : "VEC3"
        },
        {
            "bufferView" : 15,
            "componentType" : 5126,
            "count" : 30,
            "type" : "VEC3"
        },
        {
            "bufferView" : 16,
            "componentType" : 5126,
            "count" : 30,
            "type" : "VEC4"
        },
        {
            "bufferView" : 17,
            "componentType" : 5126,
            "count" : 30,
            "type" : "VEC3"
        },
        {
            "bufferView" : 18,
            "componentType" : 5126,
            "count" : 30,
            "type" : "VEC3"
        },
        {
            "bufferView" : 19,
            "componentType" : 5126,
            "count" : 30,
            "type" : "VEC4"
        },
        {
            "bufferView" : 20,
            "componentType" : 5126,
            "count" : 30,
            "type" : "VEC3"
        },
        {
            "bufferView" : 21,
            "componentType" : 5126,
            "count" : 30,
            "type" : "VEC3"
        },
        {
            "bufferView" : 22,
            "componentType" : 5126,
            "count" : 30,
            "type" : "VEC4"
        },
        {
            "bufferView" : 23,
            "componentType" : 5126,
            "count" : 30,
            "type" : "VEC3"
        },
        {
            "bufferView" : 24,
            "componentType" : 5126,
            "count" : 30,
            "type" : "VEC3"
        },
        {
            "bufferView" : 25,
            "componentType" : 5126,
            "count" : 30,
            "type" : "VEC4"
        },
        {
            "bufferView" : 26,
            "componentType" : 5126,
            "count" : 30,
            "type" : "VEC3"
        }
    ],
    "bufferViews" : [
        {
            "buffer" : 0,
            "byteLength" : 1980,
            "byteOffset" : 0
        },
        {
            "buffer" : 0,
            "byteLength" : 1980,
            "byteOffset" : 1980
        },
        {
            "buffer" : 0,
            "byteLength" : 1320,
            "byteOffset" : 3960
        },
        {
            "buffer" : 0,
            "byteLength" : 1320,
            "byteOffset" : 5280
        },
        {
            "buffer" : 0,
            "byteLength" : 2640,
            "byteOffset" : 6600
        },
        {
            "buffer" : 0,
            "byteLength" : 1500,
            "byteOffset" : 9240
        },
        {
            "buffer" : 0,
            "byteLength" : 711705,
            "byteOffset" : 10740
        },
        {
            "buffer" : 0,
            "byteLength" : 384,
            "byteOffset" : 722448
        },
        {
            "buffer" : 0,
            "byteLength" : 120,
            "byteOffset" : 722832
        },
        {
            "buffer" : 0,
            "byteLength" : 360,
            "byteOffset" : 722952
        },
        {
            "buffer" : 0,
            "byteLength" : 480,
            "byteOffset" : 723312
        },
        {
            "buffer" : 0,
            "byteLength" : 360,
            "byteOffset" : 723792
        },
        {
            "buffer" : 0,
            "byteLength" : 360,
            "byteOffset" : 724152
        },
        {
            "buffer" : 0,
            "byteLength" : 480,
            "byteOffset" : 724512
        },
        {
            "buffer" : 0,
            "byteLength" : 360,
            "byteOffset" : 724992
        },
        {
            "buffer" : 0,
            "byteLength" : 360,
            "byteOffset" : 725352
        },
        {
            "buffer" : 0,
            "byteLength" : 480,
            "byteOffset" : 725712
        },
        {
            "buffer" : 0,
            "byteLength" : 360,
            "byteOffset" : 726192
        },
        {
            "buffer" : 0,
            "byteLength" : 360,
            "byteOffset" : 726552
        },
        {
            "buffer" : 0,
            "byteLength" : 480,
            "byteOffset" : 726912
        },
        {
            "buffer" : 0,
            "byteLength" : 360,
            "byteOffset" : 727392
        },
        {
            "buffer" : 0,
            "byteLength" : 360,
            "byteOffset" : 727752
        },
        {
            "buffer" : 0,
            "byteLength" : 480,
            "byteOffset" : 728112
        },
        {
            "buffer" : 0,
            "byteLength" : 360,
            "byteOffset" : 728592
        },
        {
            "buffer" : 0,
            "byteLength" : 360,
            "byteOffset" : 728952
        },
        {
            "buffer" : 0,
            "byteLength" : 480,
            "byteOffset" : 729312
        },
        {
            "buffer" : 0,
            "byteLength" : 360,
            "byteOffset" : 729792
        }
    ],
    "buffers" : [
        {
            "byteLength" : 730152,
            "uri" : "data:application/octet-stream;base64,"
        }
    ]
}
