{
    "asset" : {
        "generator" : "Khronos glTF Blender I/O v1.3.48",
        "version" : "2.0"
    },
    "scene" : 0,
    "scenes" : [
        {
            "name" : "Scene",
            "nodes" : [
                7
            ]
        }
    ],
    "nodes" : [
        {
            "name" : "Bone.003",
            "rotation" : [
                -0.009096783585846424,
                -5.985911110995045e-15,
                -2.1688411067088964e-09,
                0.9999586343765259
            ],
            "scale" : [
                1,
                0.9999998211860657,
                0.9999998211860657
            ],
            "translation" : [
                1.0240199852747189e-17,
                0.4987789988517761,
                -4.33626956564126e-09
            ]
        },
        {
            "children" : [
                0
            ],
            "name" : "Bone.002",
            "rotation" : [
                -0.0027557830326259136,
                8.104768687232887e-15,
                -6.5703054108468e-10,
                0.9999963045120239
            ],
            "scale" : [
                1,
                0.9999999403953552,
                0.9999999403953552
            ],
            "translation" : [
                2.9731957591457372e-15,
                0.7822180986404419,
                -1.862645149230957e-09
            ]
        },
        {
            "children" : [
                1
            ],
            "name" : "Bone.001",
            "rotation" : [
                -0.037199072539806366,
                -2.0997748556724448e-14,
                -8.868950018836586e-09,
                0.9993078708648682
            ],
            "translation" : [
                1.5671299340797653e-16,
                0.823914110660553,
                2.6963462573803554e-09
            ]
        },
        {
            "name" : "Bone.004",
            "rotation" : [
                0.09394891560077667,
                -0.08714901655912399,
                -0.6194953918457031,
                0.7744702696800232
            ],
            "scale" : [
                1,
                1,
                0.9999999403953552
            ],
            "translation" : [
                1.5425510231839156e-16,
                0.823914110660553,
                -1.0186340659856796e-09
            ]
        },
        {
            "name" : "Bone.005",
            "rotation" : [
                0.09521681815385818,
                0.08852174878120422,
                0.6221917271614075,
                0.7719942927360535
            ],
            "scale" : [
                0.9999998807907104,
                0.9999998807907104,
                1
            ],
            "translation" : [
                4.752779281247399e-10,
                0.823914110660553,
                7.810450064482666e-10
            ]
        },
        {
            "children" : [
                2,
                3,
                4
            ],
            "name" : "Bone",
            "rotation" : [
                0.008755090646445751,
                1.1920474918269974e-07,
                1.0436841391125995e-09,
                0.9999616742134094
            ],
            "translation" : [
                4.06572865652155e-11,
                0.0023708182852715254,
                -0.00019410338427405804
            ]
        },
        {
            "mesh" : 0,
            "name" : "Fish_C",
            "skin" : 0
        },
        {
            "children" : [
                6,
                5
            ],
            "name" : "Armature",
            "rotation" : [
                0.7353895902633667,
                0,
                0,
                0.6776445508003235
            ],
            "scale" : [
                0.4877578616142273,
                0.4877578616142273,
                0.4877578616142273
            ],
            "translation" : [
                0,
                0.03022092580795288,
                -0.5868989825248718
            ]
        }
    ],
    "animations" : [
        {
            "channels" : [
                {
                    "sampler" : 0,
                    "target" : {
                        "node" : 5,
                        "path" : "translation"
                    }
                },
                {
                    "sampler" : 1,
                    "target" : {
                        "node" : 5,
                        "path" : "rotation"
                    }
                },
                {
                    "sampler" : 2,
                    "target" : {
                        "node" : 5,
                        "path" : "scale"
                    }
                },
                {
                    "sampler" : 3,
                    "target" : {
                        "node" : 2,
                        "path" : "translation"
                    }
                },
                {
                    "sampler" : 4,
                    "target" : {
                        "node" : 2,
                        "path" : "rotation"
                    }
                },
                {
                    "sampler" : 5,
                    "target" : {
                        "node" : 2,
                        "path" : "scale"
                    }
                },
                {
                    "sampler" : 6,
                    "target" : {
                        "node" : 1,
                        "path" : "translation"
                    }
                },
                {
                    "sampler" : 7,
                    "target" : {
                        "node" : 1,
                        "path" : "rotation"
                    }
                },
                {
                    "sampler" : 8,
                    "target" : {
                        "node" : 1,
                        "path" : "scale"
                    }
                },
                {
                    "sampler" : 9,
                    "target" : {
                        "node" : 0,
                        "path" : "translation"
                    }
                },
                {
                    "sampler" : 10,
                    "target" : {
                        "node" : 0,
                        "path" : "rotation"
                    }
                },
                {
                    "sampler" : 11,
                    "target" : {
                        "node" : 0,
                        "path" : "scale"
                    }
                },
                {
                    "sampler" : 12,
                    "target" : {
                        "node" : 3,
                        "path" : "translation"
                    }
                },
                {
                    "sampler" : 13,
                    "target" : {
                        "node" : 3,
                        "path" : "rotation"
                    }
                },
                {
                    "sampler" : 14,
                    "target" : {
                        "node" : 3,
                        "path" : "scale"
                    }
                },
                {
                    "sampler" : 15,
                    "target" : {
                        "node" : 4,
                        "path" : "translation"
                    }
                },
                {
                    "sampler" : 16,
                    "target" : {
                        "node" : 4,
                        "path" : "rotation"
                    }
                },
                {
                    "sampler" : 17,
                    "target" : {
                        "node" : 4,
                        "path" : "scale"
                    }
                }
            ],
            "name" : "ArmatureAction",
            "samplers" : [
                {
                    "input" : 7,
                    "interpolation" : "LINEAR",
                    "output" : 8
                },
                {
                    "input" : 7,
                    "interpolation" : "LINEAR",
                    "output" : 9
                },
                {
                    "input" : 7,
                    "interpolation" : "LINEAR",
                    "output" : 10
                },
                {
                    "input" : 7,
                    "interpolation" : "LINEAR",
                    "output" : 11
                },
                {
                    "input" : 7,
                    "interpolation" : "LINEAR",
                    "output" : 12
                },
                {
                    "input" : 7,
                    "interpolation" : "LINEAR",
                    "output" : 13
                },
                {
                    "input" : 7,
                    "interpolation" : "LINEAR",
                    "output" : 14
                },
                {
                    "input" : 7,
                    "interpolation" : "LINEAR",
                    "output" : 15
                },
                {
                    "input" : 7,
                    "interpolation" : "LINEAR",
                    "output" : 16
                },
                {
                    "input" : 7,
                    "interpolation" : "LINEAR",
                    "output" : 17
                },
                {
                    "input" : 7,
                    "interpolation" : "LINEAR",
                    "output" : 18
                },
                {
                    "input" : 7,
                    "interpolation" : "LINEAR",
                    "output" : 19
                },
                {
                    "input" : 7,
                    "interpolation" : "LINEAR",
                    "output" : 20
                },
                {
                    "input" : 7,
                    "interpolation" : "LINEAR",
                    "output" : 21
                },
                {
                    "input" : 7,
                    "interpolation" : "LINEAR",
                    "output" : 22
                },
                {
                    "input" : 7,
                    "interpolation" : "LINEAR",
                    "output" : 23
                },
                {
                    "input" : 7,
                    "interpolation" : "LINEAR",
                    "output" : 24
                },
                {
                    "input" : 7,
                    "interpolation" : "LINEAR",
                    "output" : 25
                }
            ]
        }
    ],
    "materials" : [
        {
            "doubleSided" : true,
            "emissiveFactor" : [
                0,
                0,
                0
            ],
            "name" : "FishCTex",
            "pbrMetallicRoughness" : {
                "baseColorTexture" : {
                    "index" : 0,
                    "texCoord" : 0
                },
                "metallicFactor" : 0,
                "roughnessFactor" : 0.5
            }
        }
    ],
    "meshes" : [
        {
            "name" : "Cylinder.001",
            "primitives" : [
                {
                    "attributes" : {
                        "POSITION" : 0,
                        "NORMAL" : 1,
                        "TEXCOORD_0" : 2,
                        "JOINTS_0" : 3,
                        "WEIGHTS_0" : 4
                    },
                    "indices" : 5,
                    "material" : 0
                }
            ]
        }
    ],
    "textures" : [
        {
            "source" : 0
        }
    ],
    "images" : [
        {
            "bufferView" : 6,
            "mimeType" : "image/png",
            "name" : "FishC_DefaultMaterial_Diffuse"
        }
    ],
    "skins" : [
        {
            "inverseBindMatrices" : 6,
            "joints" : [
                5,
                2,
                1,
                0,
                3,
                4
            ],
            "name" : "Armature"
        }
    ],
    "accessors" : [
        {
            "bufferView" : 0,
            "componentType" : 5126,
            "count" : 142,
            "max" : [
                0.3870810866355896,
                0.5165150761604309,
                0.7478988170623779
            ],
            "min" : [
                -0.3869403302669525,
                -0.5643630623817444,
                -0.6436012387275696
            ],
            "type" : "VEC3"
        },
        {
            "bufferView" : 1,
            "componentType" : 5126,
            "count" : 142,
            "type" : "VEC3"
        },
        {
            "bufferView" : 2,
            "componentType" : 5126,
            "count" : 142,
            "type" : "VEC2"
        },
        {
            "bufferView" : 3,
            "componentType" : 5123,
            "count" : 142,
            "type" : "VEC4"
        },
        {
            "bufferView" : 4,
            "componentType" : 5126,
            "count" : 142,
            "type" : "VEC4"
        },
        {
            "bufferView" : 5,
            "componentType" : 5123,
            "count" : 516,
            "type" : "SCALAR"
        },
        {
            "bufferView" : 7,
            "componentType" : 5126,
            "count" : 6,
            "type" : "MAT4"
        },
        {
            "bufferView" : 8,
            "componentType" : 5126,
            "count" : 30,
            "max" : [
                1
            ],
            "min" : [
                0.03333333333333333
            ],
            "type" : "SCALAR"
        },
        {
            "bufferView" : 9,
            "componentType" : 5126,
            "count" : 30,
            "type" : "VEC3"
        },
        {
            "bufferView" : 10,
            "componentType" : 5126,
            "count" : 30,
            "type" : "VEC4"
        },
        {
            "bufferView" : 11,
            "componentType" : 5126,
            "count" : 30,
            "type" : "VEC3"
        },
        {
            "bufferView" : 12,
            "componentType" : 5126,
            "count" : 30,
            "type" : "VEC3"
        },
        {
            "bufferView" : 13,
            "componentType" : 5126,
            "count" : 30,
            "type" : "VEC4"
        },
        {
            "bufferView" : 14,
            "componentType" : 5126,
            "count" : 30,
            "type" : "VEC3"
        },
        {
            "bufferView" : 15,
            "componentType" : 5126,
            "count" : 30,
            "type" : "VEC3"
        },
        {
            "bufferView" : 16,
            "componentType" : 5126,
            "count" : 30,
            "type" : "VEC4"
        },
        {
            "bufferView" : 17,
            "componentType" : 5126,
            "count" : 30,
            "type" : "VEC3"
        },
        {
            "bufferView" : 18,
            "componentType" : 5126,
            "count" : 30,
            "type" : "VEC3"
        },
        {
            "bufferView" : 19,
            "componentType" : 5126,
            "count" : 30,
            "type" : "VEC4"
        },
        {
            "bufferView" : 20,
            "componentType" : 5126,
            "count" : 30,
            "type" : "VEC3"
        },
        {
            "bufferView" : 21,
            "componentType" : 5126,
            "count" : 30,
            "type" : "VEC3"
        },
        {
            "bufferView" : 22,
            "componentType" : 5126,
            "count" : 30,
            "type" : "VEC4"
        },
        {
            "bufferView" : 23,
            "componentType" : 5126,
            "count" : 30,
            "type" : "VEC3"
        },
        {
            "bufferView" : 24,
            "componentType" : 5126,
            "count" : 30,
            "type" : "VEC3"
        },
        {
            "bufferView" : 25,
            "componentType" : 5126,
            "count" : 30,
            "type" : "VEC4"
        },
        {
            "bufferView" : 26,
            "componentType" : 5126,
            "count" : 30,
            "type" : "VEC3"
        }
    ],
    "bufferViews" : [
        {
            "buffer" : 0,
            "byteLength" : 1704,
            "byteOffset" : 0
        },
        {
            "buffer" : 0,
            "byteLength" : 1704,
            "byteOffset" : 1704
        },
        {
            "buffer" : 0,
            "byteLength" : 1136,
            "byteOffset" : 3408
        },
        {
            "buffer" : 0,
            "byteLength" : 1136,
            "byteOffset" : 4544
        },
        {
            "buffer" : 0,
            "byteLength" : 2272,
            "byteOffset" : 5680
        },
        {
            "buffer" : 0,
            "byteLength" : 1032,
            "byteOffset" : 7952
        },
        {
            "buffer" : 0,
            "byteLength" : 169464,
            "byteOffset" : 8984
        },
        {
            "buffer" : 0,
            "byteLength" : 384,
            "byteOffset" : 178448
        },
        {
            "buffer" : 0,
            "byteLength" : 120,
            "byteOffset" : 178832
        },
        {
            "buffer" : 0,
            "byteLength" : 360,
            "byteOffset" : 178952
        },
        {
            "buffer" : 0,
            "byteLength" : 480,
            "byteOffset" : 179312
        },
        {
            "buffer" : 0,
            "byteLength" : 360,
            "byteOffset" : 179792
        },
        {
            "buffer" : 0,
            "byteLength" : 360,
            "byteOffset" : 180152
        },
        {
            "buffer" : 0,
            "byteLength" : 480,
            "byteOffset" : 180512
        },
        {
            "buffer" : 0,
            "byteLength" : 360,
            "byteOffset" : 180992
        },
        {
            "buffer" : 0,
            "byteLength" : 360,
            "byteOffset" : 181352
        },
        {
            "buffer" : 0,
            "byteLength" : 480,
            "byteOffset" : 181712
        },
        {
            "buffer" : 0,
            "byteLength" : 360,
            "byteOffset" : 182192
        },
        {
            "buffer" : 0,
            "byteLength" : 360,
            "byteOffset" : 182552
        },
        {
            "buffer" : 0,
            "byteLength" : 480,
            "byteOffset" : 182912
        },
        {
            "buffer" : 0,
            "byteLength" : 360,
            "byteOffset" : 183392
        },
        {
            "buffer" : 0,
            "byteLength" : 360,
            "byteOffset" : 183752
        },
        {
            "buffer" : 0,
            "byteLength" : 480,
            "byteOffset" : 184112
        },
        {
            "buffer" : 0,
            "byteLength" : 360,
            "byteOffset" : 184592
        },
        {
            "buffer" : 0,
            "byteLength" : 360,
            "byteOffset" : 184952
        },
        {
            "buffer" : 0,
            "byteLength" : 480,
            "byteOffset" : 185312
        },
        {
            "buffer" : 0,
            "byteLength" : 360,
            "byteOffset" : 185792
        }
    ],
    "buffers" : [
        {
            "byteLength" : 186152,
            "uri" : "data:application/octet-stream;base64,"
        }
    ]
}
