{
    "asset" : {
        "generator" : "Khronos glTF Blender I/O v1.3.48",
        "version" : "2.0"
    },
    "scene" : 0,
    "scenes" : [
        {
            "name" : "Scene",
            "nodes" : [
                0
            ]
        }
    ],
    "nodes" : [
        {
            "mesh" : 0,
            "name" : "Icosphere"
        }
    ],
    "materials" : [
        {
            "doubleSided" : false,
            "emissiveFactor" : [
                0,
                0,
                0
            ],
            "name" : "Rock1Tex",
            "pbrMetallicRoughness" : {
                "baseColorTexture" : {
                    "index" : 0,
                    "texCoord" : 0
                },
                "metallicFactor" : 0,
                "roughnessFactor" : 0.8053435683250427
            }
        }
    ],
    "meshes" : [
        {
            "name" : "Icosphere",
            "primitives" : [
                {
                    "attributes" : {
                        "POSITION" : 0,
                        "NORMAL" : 1,
                        "TEXCOORD_0" : 2
                    },
                    "indices" : 3,
                    "material" : 0
                }
            ]
        }
    ],
    "textures" : [
        {
            "source" : 0
        }
    ],
    "images" : [
        {
            "bufferView" : 4,
            "mimeType" : "image/png",
            "name" : "RockTex"
        }
    ],
    "accessors" : [
        {
            "bufferView" : 0,
            "componentType" : 5126,
            "count" : 37,
            "max" : [
                0.9510578513145447,
                1.092065453529358,
                0.9999999403953552
            ],
            "min" : [
                -0.9510578513145447,
                0,
                -0.9999999403953552
            ],
            "type" : "VEC3"
        },
        {
            "bufferView" : 1,
            "componentType" : 5126,
            "count" : 37,
            "type" : "VEC3"
        },
        {
            "bufferView" : 2,
            "componentType" : 5126,
            "count" : 37,
            "type" : "VEC2"
        },
        {
            "bufferView" : 3,
            "componentType" : 5123,
            "count" : 120,
            "type" : "SCALAR"
        }
    ],
    "bufferViews" : [
        {
            "buffer" : 0,
            "byteLength" : 444,
            "byteOffset" : 0
        },
        {
            "buffer" : 0,
            "byteLength" : 444,
            "byteOffset" : 444
        },
        {
            "buffer" : 0,
            "byteLength" : 296,
            "byteOffset" : 888
        },
        {
            "buffer" : 0,
            "byteLength" : 240,
            "byteOffset" : 1184
        },
        {
            "buffer" : 0,
            "byteLength" : 22436,
            "byteOffset" : 1424
        }
    ],
    "buffers" : [
        {
            "byteLength" : 23860,
            "uri" : "data:application/octet-stream;base64,"
        }
    ]
}
