{
    "asset" : {
        "generator" : "Khronos glTF Blender I/O v1.3.48",
        "version" : "2.0"
    },
    "scene" : 0,
    "scenes" : [
        {
            "name" : "Scene",
            "nodes" : [
                8
            ]
        }
    ],
    "nodes" : [
        {
            "name" : "Bone.005",
            "translation" : [
                0,
                0.7952108383178711,
                0
            ]
        },
        {
            "children" : [
                0
            ],
            "name" : "Bone.004",
            "translation" : [
                0,
                0.8605754375457764,
                0
            ]
        },
        {
            "children" : [
                1
            ],
            "name" : "Bone.003",
            "rotation" : [
                0,
                1.4210854715202004e-14,
                0,
                1
            ],
            "translation" : [
                0,
                0.8714858293533325,
                0
            ]
        },
        {
            "children" : [
                2
            ],
            "name" : "Bone.002",
            "rotation" : [
                0,
                1.1920926823449918e-07,
                0,
                1
            ],
            "scale" : [
                1,
                0.9999999403953552,
                1
            ],
            "translation" : [
                0,
                0.9459724426269531,
                0
            ]
        },
        {
            "children" : [
                3
            ],
            "name" : "Bone.001",
            "translation" : [
                0,
                1,
                0
            ]
        },
        {
            "children" : [
                4
            ],
            "name" : "Bone"
        },
        {
            "mesh" : 0,
            "name" : "Plane.001",
            "skin" : 0
        },
        {
            "mesh" : 1,
            "name" : "Plane.003",
            "skin" : 0
        },
        {
            "children" : [
                6,
                7,
                5
            ],
            "name" : "Armature",
            "scale" : [
                4.703749179840088,
                5.742552280426025,
                4.703749179840088
            ],
            "translation" : [
                0,
                -0.46783602237701416,
                0
            ]
        }
    ],
    "animations" : [
        {
            "channels" : [
                {
                    "sampler" : 0,
                    "target" : {
                        "node" : 5,
                        "path" : "translation"
                    }
                },
                {
                    "sampler" : 1,
                    "target" : {
                        "node" : 5,
                        "path" : "rotation"
                    }
                },
                {
                    "sampler" : 2,
                    "target" : {
                        "node" : 5,
                        "path" : "scale"
                    }
                },
                {
                    "sampler" : 3,
                    "target" : {
                        "node" : 4,
                        "path" : "translation"
                    }
                },
                {
                    "sampler" : 4,
                    "target" : {
                        "node" : 4,
                        "path" : "rotation"
                    }
                },
                {
                    "sampler" : 5,
                    "target" : {
                        "node" : 4,
                        "path" : "scale"
                    }
                },
                {
                    "sampler" : 6,
                    "target" : {
                        "node" : 3,
                        "path" : "translation"
                    }
                },
                {
                    "sampler" : 7,
                    "target" : {
                        "node" : 3,
                        "path" : "rotation"
                    }
                },
                {
                    "sampler" : 8,
                    "target" : {
                        "node" : 3,
                        "path" : "scale"
                    }
                },
                {
                    "sampler" : 9,
                    "target" : {
                        "node" : 2,
                        "path" : "translation"
                    }
                },
                {
                    "sampler" : 10,
                    "target" : {
                        "node" : 2,
                        "path" : "rotation"
                    }
                },
                {
                    "sampler" : 11,
                    "target" : {
                        "node" : 2,
                        "path" : "scale"
                    }
                },
                {
                    "sampler" : 12,
                    "target" : {
                        "node" : 1,
                        "path" : "translation"
                    }
                },
                {
                    "sampler" : 13,
                    "target" : {
                        "node" : 1,
                        "path" : "rotation"
                    }
                },
                {
                    "sampler" : 14,
                    "target" : {
                        "node" : 1,
                        "path" : "scale"
                    }
                },
                {
                    "sampler" : 15,
                    "target" : {
                        "node" : 0,
                        "path" : "translation"
                    }
                },
                {
                    "sampler" : 16,
                    "target" : {
                        "node" : 0,
                        "path" : "rotation"
                    }
                },
                {
                    "sampler" : 17,
                    "target" : {
                        "node" : 0,
                        "path" : "scale"
                    }
                }
            ],
            "name" : "ArmatureAction",
            "samplers" : [
                {
                    "input" : 12,
                    "interpolation" : "LINEAR",
                    "output" : 13
                },
                {
                    "input" : 12,
                    "interpolation" : "LINEAR",
                    "output" : 14
                },
                {
                    "input" : 12,
                    "interpolation" : "LINEAR",
                    "output" : 15
                },
                {
                    "input" : 12,
                    "interpolation" : "LINEAR",
                    "output" : 16
                },
                {
                    "input" : 12,
                    "interpolation" : "LINEAR",
                    "output" : 17
                },
                {
                    "input" : 12,
                    "interpolation" : "LINEAR",
                    "output" : 18
                },
                {
                    "input" : 12,
                    "interpolation" : "LINEAR",
                    "output" : 19
                },
                {
                    "input" : 12,
                    "interpolation" : "LINEAR",
                    "output" : 20
                },
                {
                    "input" : 12,
                    "interpolation" : "LINEAR",
                    "output" : 21
                },
                {
                    "input" : 12,
                    "interpolation" : "LINEAR",
                    "output" : 22
                },
                {
                    "input" : 12,
                    "interpolation" : "LINEAR",
                    "output" : 23
                },
                {
                    "input" : 12,
                    "interpolation" : "LINEAR",
                    "output" : 24
                },
                {
                    "input" : 12,
                    "interpolation" : "LINEAR",
                    "output" : 25
                },
                {
                    "input" : 12,
                    "interpolation" : "LINEAR",
                    "output" : 26
                },
                {
                    "input" : 12,
                    "interpolation" : "LINEAR",
                    "output" : 27
                },
                {
                    "input" : 12,
                    "interpolation" : "LINEAR",
                    "output" : 28
                },
                {
                    "input" : 12,
                    "interpolation" : "LINEAR",
                    "output" : 29
                },
                {
                    "input" : 12,
                    "interpolation" : "LINEAR",
                    "output" : 30
                }
            ]
        }
    ],
    "materials" : [
        {
            "alphaCutoff" : 0.75,
            "alphaMode" : "MASK",
            "doubleSided" : true,
            "emissiveFactor" : [
                0,
                0,
                0
            ],
            "name" : "Material.001",
            "pbrMetallicRoughness" : {
                "baseColorTexture" : {
                    "index" : 0,
                    "texCoord" : 0
                },
                "metallicFactor" : 0,
                "roughnessFactor" : 0.5
            }
        },
        {
            "alphaCutoff" : 0.75,
            "alphaMode" : "MASK",
            "doubleSided" : true,
            "emissiveFactor" : [
                0,
                0,
                0
            ],
            "name" : "Material.002",
            "pbrMetallicRoughness" : {
                "baseColorTexture" : {
                    "index" : 1,
                    "texCoord" : 0
                },
                "metallicFactor" : 0,
                "roughnessFactor" : 0.5
            }
        }
    ],
    "meshes" : [
        {
            "name" : "Plane.002",
            "primitives" : [
                {
                    "attributes" : {
                        "POSITION" : 0,
                        "NORMAL" : 1,
                        "TEXCOORD_0" : 2,
                        "JOINTS_0" : 3,
                        "WEIGHTS_0" : 4
                    },
                    "indices" : 5,
                    "material" : 0
                }
            ]
        },
        {
            "name" : "Plane.004",
            "primitives" : [
                {
                    "attributes" : {
                        "POSITION" : 7,
                        "NORMAL" : 8,
                        "TEXCOORD_0" : 9,
                        "JOINTS_0" : 10,
                        "WEIGHTS_0" : 11
                    },
                    "indices" : 5,
                    "material" : 1
                }
            ]
        }
    ],
    "textures" : [
        {
            "source" : 0
        },
        {
            "source" : 1
        }
    ],
    "images" : [
        {
            "bufferView" : 6,
            "mimeType" : "image/png",
            "name" : "SeaweedTex1"
        },
        {
            "bufferView" : 13,
            "mimeType" : "image/png",
            "name" : "SeaweedTex2"
        }
    ],
    "skins" : [
        {
            "inverseBindMatrices" : 6,
            "joints" : [
                5,
                4,
                3,
                2,
                1,
                0
            ],
            "name" : "Armature"
        }
    ],
    "accessors" : [
        {
            "bufferView" : 0,
            "componentType" : 5126,
            "count" : 12,
            "max" : [
                3.14951491355896,
                32.594078063964844,
                0.08418659120798111
            ],
            "min" : [
                -3.14951491355896,
                -0.5924378633499146,
                0.0841841921210289
            ],
            "type" : "VEC3"
        },
        {
            "bufferView" : 1,
            "componentType" : 5126,
            "count" : 12,
            "type" : "VEC3"
        },
        {
            "bufferView" : 2,
            "componentType" : 5126,
            "count" : 12,
            "type" : "VEC2"
        },
        {
            "bufferView" : 3,
            "componentType" : 5123,
            "count" : 12,
            "type" : "VEC4"
        },
        {
            "bufferView" : 4,
            "componentType" : 5126,
            "count" : 12,
            "type" : "VEC4"
        },
        {
            "bufferView" : 5,
            "componentType" : 5123,
            "count" : 30,
            "type" : "SCALAR"
        },
        {
            "bufferView" : 7,
            "componentType" : 5126,
            "count" : 6,
            "type" : "MAT4"
        },
        {
            "bufferView" : 8,
            "componentType" : 5126,
            "count" : 12,
            "max" : [
                1.3878359368391102e-06,
                32.30202102661133,
                4.310708999633789
            ],
            "min" : [
                -1.3878359368391102e-06,
                -0.05286234989762306,
                -4.04547643661499
            ],
            "type" : "VEC3"
        },
        {
            "bufferView" : 9,
            "componentType" : 5126,
            "count" : 12,
            "type" : "VEC3"
        },
        {
            "bufferView" : 10,
            "componentType" : 5126,
            "count" : 12,
            "type" : "VEC2"
        },
        {
            "bufferView" : 11,
            "componentType" : 5123,
            "count" : 12,
            "type" : "VEC4"
        },
        {
            "bufferView" : 12,
            "componentType" : 5126,
            "count" : 12,
            "type" : "VEC4"
        },
        {
            "bufferView" : 14,
            "componentType" : 5126,
            "count" : 270,
            "max" : [
                9
            ],
            "min" : [
                0.03333333333333333
            ],
            "type" : "SCALAR"
        },
        {
            "bufferView" : 15,
            "componentType" : 5126,
            "count" : 270,
            "type" : "VEC3"
        },
        {
            "bufferView" : 16,
            "componentType" : 5126,
            "count" : 270,
            "type" : "VEC4"
        },
        {
            "bufferView" : 17,
            "componentType" : 5126,
            "count" : 270,
            "type" : "VEC3"
        },
        {
            "bufferView" : 18,
            "componentType" : 5126,
            "count" : 270,
            "type" : "VEC3"
        },
        {
            "bufferView" : 19,
            "componentType" : 5126,
            "count" : 270,
            "type" : "VEC4"
        },
        {
            "bufferView" : 20,
            "componentType" : 5126,
            "count" : 270,
            "type" : "VEC3"
        },
        {
            "bufferView" : 21,
            "componentType" : 5126,
            "count" : 270,
            "type" : "VEC3"
        },
        {
            "bufferView" : 22,
            "componentType" : 5126,
            "count" : 270,
            "type" : "VEC4"
        },
        {
            "bufferView" : 23,
            "componentType" : 5126,
            "count" : 270,
            "type" : "VEC3"
        },
        {
            "bufferView" : 24,
            "componentType" : 5126,
            "count" : 270,
            "type" : "VEC3"
        },
        {
            "bufferView" : 25,
            "componentType" : 5126,
            "count" : 270,
            "type" : "VEC4"
        },
        {
            "bufferView" : 26,
            "componentType" : 5126,
            "count" : 270,
            "type" : "VEC3"
        },
        {
            "bufferView" : 27,
            "componentType" : 5126,
            "count" : 270,
            "type" : "VEC3"
        },
        {
            "bufferView" : 28,
            "componentType" : 5126,
            "count" : 270,
            "type" : "VEC4"
        },
        {
            "bufferView" : 29,
            "componentType" : 5126,
            "count" : 270,
            "type" : "VEC3"
        },
        {
            "bufferView" : 30,
            "componentType" : 5126,
            "count" : 270,
            "type" : "VEC3"
        },
        {
            "bufferView" : 31,
            "componentType" : 5126,
            "count" : 270,
            "type" : "VEC4"
        },
        {
            "bufferView" : 32,
            "componentType" : 5126,
            "count" : 270,
            "type" : "VEC3"
        }
    ],
    "bufferViews" : [
        {
            "buffer" : 0,
            "byteLength" : 144,
            "byteOffset" : 0
        },
        {
            "buffer" : 0,
            "byteLength" : 144,
            "byteOffset" : 144
        },
        {
            "buffer" : 0,
            "byteLength" : 96,
            "byteOffset" : 288
        },
        {
            "buffer" : 0,
            "byteLength" : 96,
            "byteOffset" : 384
        },
        {
            "buffer" : 0,
            "byteLength" : 192,
            "byteOffset" : 480
        },
        {
            "buffer" : 0,
            "byteLength" : 60,
            "byteOffset" : 672
        },
        {
            "buffer" : 0,
            "byteLength" : 4989,
            "byteOffset" : 732
        },
        {
            "buffer" : 0,
            "byteLength" : 384,
            "byteOffset" : 5724
        },
        {
            "buffer" : 0,
            "byteLength" : 144,
            "byteOffset" : 6108
        },
        {
            "buffer" : 0,
            "byteLength" : 144,
            "byteOffset" : 6252
        },
        {
            "buffer" : 0,
            "byteLength" : 96,
            "byteOffset" : 6396
        },
        {
            "buffer" : 0,
            "byteLength" : 96,
            "byteOffset" : 6492
        },
        {
            "buffer" : 0,
            "byteLength" : 192,
            "byteOffset" : 6588
        },
        {
            "buffer" : 0,
            "byteLength" : 4685,
            "byteOffset" : 6780
        },
        {
            "buffer" : 0,
            "byteLength" : 1080,
            "byteOffset" : 11468
        },
        {
            "buffer" : 0,
            "byteLength" : 3240,
            "byteOffset" : 12548
        },
        {
            "buffer" : 0,
            "byteLength" : 4320,
            "byteOffset" : 15788
        },
        {
            "buffer" : 0,
            "byteLength" : 3240,
            "byteOffset" : 20108
        },
        {
            "buffer" : 0,
            "byteLength" : 3240,
            "byteOffset" : 23348
        },
        {
            "buffer" : 0,
            "byteLength" : 4320,
            "byteOffset" : 26588
        },
        {
            "buffer" : 0,
            "byteLength" : 3240,
            "byteOffset" : 30908
        },
        {
            "buffer" : 0,
            "byteLength" : 3240,
            "byteOffset" : 34148
        },
        {
            "buffer" : 0,
            "byteLength" : 4320,
            "byteOffset" : 37388
        },
        {
            "buffer" : 0,
            "byteLength" : 3240,
            "byteOffset" : 41708
        },
        {
            "buffer" : 0,
            "byteLength" : 3240,
            "byteOffset" : 44948
        },
        {
            "buffer" : 0,
            "byteLength" : 4320,
            "byteOffset" : 48188
        },
        {
            "buffer" : 0,
            "byteLength" : 3240,
            "byteOffset" : 52508
        },
        {
            "buffer" : 0,
            "byteLength" : 3240,
            "byteOffset" : 55748
        },
        {
            "buffer" : 0,
            "byteLength" : 4320,
            "byteOffset" : 58988
        },
        {
            "buffer" : 0,
            "byteLength" : 3240,
            "byteOffset" : 63308
        },
        {
            "buffer" : 0,
            "byteLength" : 3240,
            "byteOffset" : 66548
        },
        {
            "buffer" : 0,
            "byteLength" : 4320,
            "byteOffset" : 69788
        },
        {
            "buffer" : 0,
            "byteLength" : 3240,
            "byteOffset" : 74108
        }
    ],
    "buffers" : [
        {
            "byteLength" : 77348,
            "uri" : "data:application/octet-stream;base64,"
        }
    ]
}
