{
    "asset" : {
        "generator" : "Khronos glTF Blender I/O v1.3.48",
        "version" : "2.0"
    },
    "scene" : 0,
    "scenes" : [
        {
            "name" : "Scene",
            "nodes" : [
                0,
                1,
                2
            ]
        }
    ],
    "nodes" : [
        {
            "name" : "Light",
            "rotation" : [
                0.16907575726509094,
                0.7558803558349609,
                -0.27217137813568115,
                0.570947527885437
            ],
            "translation" : [
                14.076245307922363,
                5.903861999511719,
                -1.0054539442062378
            ]
        },
        {
            "name" : "Camera",
            "rotation" : [
                0.483536034822464,
                0.33687159419059753,
                -0.20870360732078552,
                0.7804827094078064
            ],
            "translation" : [
                7.358891487121582,
                4.958309173583984,
                16.925790786743164
            ]
        },
        {
            "mesh" : 0,
            "name" : "Cylinder",
            "rotation" : [
                0,
                0.1568799763917923,
                0,
                0.9876177906990051
            ],
            "scale" : [
                0.554988443851471,
                0.554988443851471,
                0.554988443851471
            ],
            "translation" : [
                0,
                0.07233798503875732,
                -0.08203727751970291
            ]
        }
    ],
    "materials" : [
        {
            "doubleSided" : true,
            "emissiveFactor" : [
                0,
                0,
                0
            ],
            "name" : "Material",
            "pbrMetallicRoughness" : {
                "baseColorFactor" : [
                    0.20893004536628723,
                    0.029984578490257263,
                    0.19096966087818146,
                    1
                ],
                "metallicFactor" : 0,
                "roughnessFactor" : 0.5
            }
        }
    ],
    "meshes" : [
        {
            "name" : "Cylinder",
            "primitives" : [
                {
                    "attributes" : {
                        "POSITION" : 0,
                        "NORMAL" : 1,
                        "TEXCOORD_0" : 2
                    },
                    "indices" : 3,
                    "material" : 0
                }
            ]
        }
    ],
    "accessors" : [
        {
            "bufferView" : 0,
            "componentType" : 5126,
            "count" : 155,
            "max" : [
                0.7630606889724731,
                0.11775843799114227,
                0.7376173734664917
            ],
            "min" : [
                -0.6639804244041443,
                -0.10554318875074387,
                -0.7442516684532166
            ],
            "type" : "VEC3"
        },
        {
            "bufferView" : 1,
            "componentType" : 5126,
            "count" : 155,
            "type" : "VEC3"
        },
        {
            "bufferView" : 2,
            "componentType" : 5126,
            "count" : 155,
            "type" : "VEC2"
        },
        {
            "bufferView" : 3,
            "componentType" : 5123,
            "count" : 627,
            "type" : "SCALAR"
        }
    ],
    "bufferViews" : [
        {
            "buffer" : 0,
            "byteLength" : 1860,
            "byteOffset" : 0
        },
        {
            "buffer" : 0,
            "byteLength" : 1860,
            "byteOffset" : 1860
        },
        {
            "buffer" : 0,
            "byteLength" : 1240,
            "byteOffset" : 3720
        },
        {
            "buffer" : 0,
            "byteLength" : 1254,
            "byteOffset" : 4960
        }
    ],
    "buffers" : [
        {
            "byteLength" : 6216,
            "uri" : "data:application/octet-stream;base64,"
        }
    ]
}
