{
    "asset" : {
        "generator" : "Khronos glTF Blender I/O v1.3.48",
        "version" : "2.0"
    },
    "scene" : 0,
    "scenes" : [
        {
            "name" : "Scene",
            "nodes" : [
                0
            ]
        }
    ],
    "nodes" : [
        {
            "mesh" : 0,
            "name" : "Cube",
            "scale" : [
                0.45202845335006714,
                0.45202845335006714,
                12.441048622131348
            ]
        }
    ],
    "materials" : [
        {
            "doubleSided" : true,
            "emissiveFactor" : [
                0,
                0,
                0
            ],
            "name" : "ShipTex",
            "pbrMetallicRoughness" : {
                "baseColorTexture" : {
                    "index" : 0,
                    "texCoord" : 0
                },
                "metallicFactor" : 0,
                "roughnessFactor" : 0.5
            }
        },
        {
            "doubleSided" : true,
            "emissiveFactor" : [
                0,
                0,
                0
            ],
            "name" : "Material",
            "pbrMetallicRoughness" : {
                "baseColorTexture" : {
                    "index" : 1,
                    "texCoord" : 0
                },
                "metallicFactor" : 0,
                "roughnessFactor" : 0.5
            }
        }
    ],
    "meshes" : [
        {
            "name" : "Cube",
            "primitives" : [
                {
                    "attributes" : {
                        "POSITION" : 0,
                        "NORMAL" : 1,
                        "TEXCOORD_0" : 2
                    },
                    "indices" : 3,
                    "material" : 0
                },
                {
                    "attributes" : {
                        "POSITION" : 4,
                        "NORMAL" : 5,
                        "TEXCOORD_0" : 6
                    },
                    "indices" : 7,
                    "material" : 1
                }
            ]
        }
    ],
    "textures" : [
        {
            "source" : 0
        },
        {
            "source" : 0
        }
    ],
    "images" : [
        {
            "bufferView" : 4,
            "mimeType" : "image/png",
            "name" : "ShipWreck_DefaultMaterial_Diffuse"
        }
    ],
    "accessors" : [
        {
            "bufferView" : 0,
            "componentType" : 5126,
            "count" : 1982,
            "max" : [
                1,
                6.456174850463867,
                1.0904731750488281
            ],
            "min" : [
                -97,
                -33.47272491455078,
                -1.0904731750488281
            ],
            "type" : "VEC3"
        },
        {
            "bufferView" : 1,
            "componentType" : 5126,
            "count" : 1982,
            "type" : "VEC3"
        },
        {
            "bufferView" : 2,
            "componentType" : 5126,
            "count" : 1982,
            "type" : "VEC2"
        },
        {
            "bufferView" : 3,
            "componentType" : 5123,
            "count" : 3138,
            "type" : "SCALAR"
        },
        {
            "bufferView" : 5,
            "componentType" : 5126,
            "count" : 178,
            "max" : [
                1,
                6.456174850463867,
                1.0904731750488281
            ],
            "min" : [
                -97,
                -33.47272491455078,
                -1.0904731750488281
            ],
            "type" : "VEC3"
        },
        {
            "bufferView" : 6,
            "componentType" : 5126,
            "count" : 178,
            "type" : "VEC3"
        },
        {
            "bufferView" : 7,
            "componentType" : 5126,
            "count" : 178,
            "type" : "VEC2"
        },
        {
            "bufferView" : 8,
            "componentType" : 5123,
            "count" : 306,
            "type" : "SCALAR"
        }
    ],
    "bufferViews" : [
        {
            "buffer" : 0,
            "byteLength" : 23784,
            "byteOffset" : 0
        },
        {
            "buffer" : 0,
            "byteLength" : 23784,
            "byteOffset" : 23784
        },
        {
            "buffer" : 0,
            "byteLength" : 15856,
            "byteOffset" : 47568
        },
        {
            "buffer" : 0,
            "byteLength" : 6276,
            "byteOffset" : 63424
        },
        {
            "buffer" : 0,
            "byteLength" : 1025229,
            "byteOffset" : 69700
        },
        {
            "buffer" : 0,
            "byteLength" : 2136,
            "byteOffset" : 1094932
        },
        {
            "buffer" : 0,
            "byteLength" : 2136,
            "byteOffset" : 1097068
        },
        {
            "buffer" : 0,
            "byteLength" : 1424,
            "byteOffset" : 1099204
        },
        {
            "buffer" : 0,
            "byteLength" : 612,
            "byteOffset" : 1100628
        }
    ],
    "buffers" : [
        {
            "byteLength" : 1101240,
            "uri" : "data:application/octet-stream;base64,"
        }
    ]
}
