{
    "asset" : {
        "generator" : "Khronos glTF Blender I/O v1.3.48",
        "version" : "2.0"
    },
    "scene" : 0,
    "scenes" : [
        {
            "name" : "Scene",
            "nodes" : [
                0,
                1,
                2
            ]
        }
    ],
    "nodes" : [
        {
            "name" : "Light",
            "rotation" : [
                0.16907575726509094,
                0.7558803558349609,
                -0.27217137813568115,
                0.570947527885437
            ],
            "translation" : [
                14.076245307922363,
                5.903861999511719,
                8.994545936584473
            ]
        },
        {
            "name" : "Camera",
            "rotation" : [
                0.483536034822464,
                0.33687159419059753,
                -0.20870360732078552,
                0.7804827094078064
            ],
            "translation" : [
                7.358891487121582,
                4.958309173583984,
                16.925790786743164
            ]
        },
        {
            "mesh" : 0,
            "name" : "Submarine",
            "translation" : [
                -0.5372666120529175,
                1.5501707792282104,
                0.006798228248953819
            ]
        }
    ],
    "materials" : [
        {
            "doubleSided" : true,
            "emissiveFactor" : [
                0,
                0,
                0
            ],
            "name" : "Steel Frame.001",
            "pbrMetallicRoughness" : {
                "baseColorFactor" : [
                    0,
                    0.033040765672922134,
                    0.00019657764642033726,
                    1
                ],
                "metallicFactor" : 0,
                "roughnessFactor" : 0.5
            }
        },
        {
            "alphaMode" : "BLEND",
            "doubleSided" : true,
            "emissiveFactor" : [
                0,
                0,
                0
            ],
            "name" : "Glass",
            "pbrMetallicRoughness" : {
                "baseColorFactor" : [
                    0.013130128383636475,
                    0.02879013866186142,
                    0.8000000715255737,
                    0.10000000149011612
                ],
                "metallicFactor" : 0,
                "roughnessFactor" : 0.12595418095588684
            }
        }
    ],
    "meshes" : [
        {
            "name" : "Torus.003",
            "primitives" : [
                {
                    "attributes" : {
                        "POSITION" : 0,
                        "NORMAL" : 1,
                        "TEXCOORD_0" : 2
                    },
                    "indices" : 3,
                    "material" : 0
                },
                {
                    "attributes" : {
                        "POSITION" : 4,
                        "NORMAL" : 5,
                        "TEXCOORD_0" : 6
                    },
                    "indices" : 7,
                    "material" : 1
                }
            ]
        }
    ],
    "accessors" : [
        {
            "bufferView" : 0,
            "componentType" : 5126,
            "count" : 1337,
            "max" : [
                3.096381187438965,
                0.867940366268158,
                1.7917096614837646
            ],
            "min" : [
                -1.8367819786071777,
                -0.778881847858429,
                -1.7890336513519287
            ],
            "type" : "VEC3"
        },
        {
            "bufferView" : 1,
            "componentType" : 5126,
            "count" : 1337,
            "type" : "VEC3"
        },
        {
            "bufferView" : 2,
            "componentType" : 5126,
            "count" : 1337,
            "type" : "VEC2"
        },
        {
            "bufferView" : 3,
            "componentType" : 5123,
            "count" : 2205,
            "type" : "SCALAR"
        },
        {
            "bufferView" : 4,
            "componentType" : 5126,
            "count" : 40,
            "max" : [
                -1.4088006019592285,
                0.5415666699409485,
                0.9089521765708923
            ],
            "min" : [
                -1.8216001987457275,
                -0.6905978322029114,
                -0.9165030717849731
            ],
            "type" : "VEC3"
        },
        {
            "bufferView" : 5,
            "componentType" : 5126,
            "count" : 40,
            "type" : "VEC3"
        },
        {
            "bufferView" : 6,
            "componentType" : 5126,
            "count" : 40,
            "type" : "VEC2"
        },
        {
            "bufferView" : 7,
            "componentType" : 5123,
            "count" : 66,
            "type" : "SCALAR"
        }
    ],
    "bufferViews" : [
        {
            "buffer" : 0,
            "byteLength" : 16044,
            "byteOffset" : 0
        },
        {
            "buffer" : 0,
            "byteLength" : 16044,
            "byteOffset" : 16044
        },
        {
            "buffer" : 0,
            "byteLength" : 10696,
            "byteOffset" : 32088
        },
        {
            "buffer" : 0,
            "byteLength" : 4410,
            "byteOffset" : 42784
        },
        {
            "buffer" : 0,
            "byteLength" : 480,
            "byteOffset" : 47196
        },
        {
            "buffer" : 0,
            "byteLength" : 480,
            "byteOffset" : 47676
        },
        {
            "buffer" : 0,
            "byteLength" : 320,
            "byteOffset" : 48156
        },
        {
            "buffer" : 0,
            "byteLength" : 132,
            "byteOffset" : 48476
        }
    ],
    "buffers" : [
        {
            "byteLength" : 48608,
            "uri" : "data:application/octet-stream;base64,"
        }
    ]
}
