{
    "asset" : {
        "generator" : "Khronos glTF Blender I/O v1.3.48",
        "version" : "2.0"
    },
    "scene" : 0,
    "scenes" : [
        {
            "name" : "Scene",
            "nodes" : [
                5
            ]
        }
    ],
    "nodes" : [
        {
            "name" : "Bone.004",
            "rotation" : [
                -0.49819332361221313,
                -0.03196239843964577,
                -0.4886190593242645,
                0.715565025806427
            ],
            "scale" : [
                0.9999998807907104,
                1,
                0.9999998807907104
            ],
            "translation" : [
                -3.641366674855817e-08,
                1.8513647317886353,
                1.4445464557866217e-07
            ]
        },
        {
            "children" : [
                0
            ],
            "name" : "Bone.001",
            "rotation" : [
                0.6993980407714844,
                -0.05315782502293587,
                -0.05230295658111572,
                0.7108312845230103
            ],
            "scale" : [
                1,
                0.9999998807907104,
                0.9996763467788696
            ],
            "translation" : [
                0.15825052559375763,
                1.033125877380371,
                1.8270331914038707e-09
            ]
        },
        {
            "name" : "Bone.003",
            "rotation" : [
                0.5208175182342529,
                0.04416169971227646,
                -0.4755873680114746,
                0.7075418829917908
            ],
            "scale" : [
                0.9999998807907104,
                1,
                0.9999999403953552
            ],
            "translation" : [
                8.446079391433159e-10,
                1.936704158782959,
                -3.1276712775252236e-08
            ]
        },
        {
            "children" : [
                2
            ],
            "name" : "Bone.002",
            "rotation" : [
                -0.6934531331062317,
                0.05267174169421196,
                -0.05095867067575455,
                0.7167648077011108
            ],
            "scale" : [
                1,
                0.9999999403953552,
                0.9999999403953552
            ],
            "translation" : [
                0.15825054049491882,
                1.0331259965896606,
                3.768252820890439e-09
            ]
        },
        {
            "mesh" : 0,
            "name" : "Cube",
            "skin" : 0
        },
        {
            "children" : [
                4,
                1,
                3
            ],
            "name" : "Armature",
            "scale" : [
                1,
                0.8700251579284668,
                1
            ],
            "translation" : [
                1.0000040531158447,
                0.9538440108299255,
                -0.0034308694303035736
            ]
        }
    ],
    "animations" : [
        {
            "channels" : [
                {
                    "sampler" : 0,
                    "target" : {
                        "node" : 1,
                        "path" : "translation"
                    }
                },
                {
                    "sampler" : 1,
                    "target" : {
                        "node" : 1,
                        "path" : "rotation"
                    }
                },
                {
                    "sampler" : 2,
                    "target" : {
                        "node" : 1,
                        "path" : "scale"
                    }
                },
                {
                    "sampler" : 3,
                    "target" : {
                        "node" : 0,
                        "path" : "translation"
                    }
                },
                {
                    "sampler" : 4,
                    "target" : {
                        "node" : 0,
                        "path" : "rotation"
                    }
                },
                {
                    "sampler" : 5,
                    "target" : {
                        "node" : 0,
                        "path" : "scale"
                    }
                },
                {
                    "sampler" : 6,
                    "target" : {
                        "node" : 3,
                        "path" : "translation"
                    }
                },
                {
                    "sampler" : 7,
                    "target" : {
                        "node" : 3,
                        "path" : "rotation"
                    }
                },
                {
                    "sampler" : 8,
                    "target" : {
                        "node" : 3,
                        "path" : "scale"
                    }
                },
                {
                    "sampler" : 9,
                    "target" : {
                        "node" : 2,
                        "path" : "translation"
                    }
                },
                {
                    "sampler" : 10,
                    "target" : {
                        "node" : 2,
                        "path" : "rotation"
                    }
                },
                {
                    "sampler" : 11,
                    "target" : {
                        "node" : 2,
                        "path" : "scale"
                    }
                }
            ],
            "name" : "ArmatureAction.001",
            "samplers" : [
                {
                    "input" : 13,
                    "interpolation" : "LINEAR",
                    "output" : 14
                },
                {
                    "input" : 13,
                    "interpolation" : "LINEAR",
                    "output" : 15
                },
                {
                    "input" : 13,
                    "interpolation" : "LINEAR",
                    "output" : 16
                },
                {
                    "input" : 13,
                    "interpolation" : "LINEAR",
                    "output" : 17
                },
                {
                    "input" : 13,
                    "interpolation" : "LINEAR",
                    "output" : 18
                },
                {
                    "input" : 13,
                    "interpolation" : "LINEAR",
                    "output" : 19
                },
                {
                    "input" : 13,
                    "interpolation" : "LINEAR",
                    "output" : 20
                },
                {
                    "input" : 13,
                    "interpolation" : "LINEAR",
                    "output" : 21
                },
                {
                    "input" : 13,
                    "interpolation" : "LINEAR",
                    "output" : 22
                },
                {
                    "input" : 13,
                    "interpolation" : "LINEAR",
                    "output" : 23
                },
                {
                    "input" : 13,
                    "interpolation" : "LINEAR",
                    "output" : 24
                },
                {
                    "input" : 13,
                    "interpolation" : "LINEAR",
                    "output" : 25
                }
            ]
        }
    ],
    "materials" : [
        {
            "doubleSided" : true,
            "emissiveFactor" : [
                0,
                0,
                0
            ],
            "name" : "Material",
            "pbrMetallicRoughness" : {
                "baseColorTexture" : {
                    "index" : 0,
                    "texCoord" : 0
                },
                "metallicFactor" : 0,
                "roughnessFactor" : 0.4000000059604645
            }
        },
        {
            "doubleSided" : true,
            "emissiveFactor" : [
                0.26910722255706787,
                0.13776704668998718,
                0.0034508758690208197
            ],
            "name" : "Gold",
            "pbrMetallicRoughness" : {
                "baseColorFactor" : [
                    0.8000000715255737,
                    0.3323245644569397,
                    0.016744352877140045,
                    1
                ],
                "metallicFactor" : 0,
                "roughnessFactor" : 0.1183210015296936
            }
        }
    ],
    "meshes" : [
        {
            "name" : "Cube",
            "primitives" : [
                {
                    "attributes" : {
                        "POSITION" : 0,
                        "NORMAL" : 1,
                        "TEXCOORD_0" : 2,
                        "JOINTS_0" : 3,
                        "WEIGHTS_0" : 4
                    },
                    "indices" : 5,
                    "material" : 0
                },
                {
                    "attributes" : {
                        "POSITION" : 6,
                        "NORMAL" : 7,
                        "TEXCOORD_0" : 8,
                        "JOINTS_0" : 9,
                        "WEIGHTS_0" : 10
                    },
                    "indices" : 11,
                    "material" : 1
                }
            ]
        }
    ],
    "textures" : [
        {
            "source" : 0
        }
    ],
    "images" : [
        {
            "bufferView" : 6,
            "mimeType" : "image/png",
            "name" : "TreasureChest1_Material_Diffuse"
        }
    ],
    "skins" : [
        {
            "inverseBindMatrices" : 12,
            "joints" : [
                1,
                0,
                3,
                2
            ],
            "name" : "Armature"
        }
    ],
    "accessors" : [
        {
            "bufferView" : 0,
            "componentType" : 5126,
            "count" : 408,
            "max" : [
                2.9013333320617676,
                3.3910999298095703,
                2.101630687713623
            ],
            "min" : [
                -1,
                0.011580288410186768,
                -2.101630687713623
            ],
            "type" : "VEC3"
        },
        {
            "bufferView" : 1,
            "componentType" : 5126,
            "count" : 408,
            "type" : "VEC3"
        },
        {
            "bufferView" : 2,
            "componentType" : 5126,
            "count" : 408,
            "type" : "VEC2"
        },
        {
            "bufferView" : 3,
            "componentType" : 5123,
            "count" : 408,
            "type" : "VEC4"
        },
        {
            "bufferView" : 4,
            "componentType" : 5126,
            "count" : 408,
            "type" : "VEC4"
        },
        {
            "bufferView" : 5,
            "componentType" : 5123,
            "count" : 1002,
            "type" : "SCALAR"
        },
        {
            "bufferView" : 7,
            "componentType" : 5126,
            "count" : 256,
            "max" : [
                0.8248105645179749,
                2.5529236793518066,
                1.7323051691055298
            ],
            "min" : [
                -0.824810802936554,
                1.7259879112243652,
                -1.7323051691055298
            ],
            "type" : "VEC3"
        },
        {
            "bufferView" : 8,
            "componentType" : 5126,
            "count" : 256,
            "type" : "VEC3"
        },
        {
            "bufferView" : 9,
            "componentType" : 5126,
            "count" : 256,
            "type" : "VEC2"
        },
        {
            "bufferView" : 10,
            "componentType" : 5123,
            "count" : 256,
            "type" : "VEC4"
        },
        {
            "bufferView" : 11,
            "componentType" : 5126,
            "count" : 256,
            "type" : "VEC4"
        },
        {
            "bufferView" : 12,
            "componentType" : 5123,
            "count" : 384,
            "type" : "SCALAR"
        },
        {
            "bufferView" : 13,
            "componentType" : 5126,
            "count" : 4,
            "type" : "MAT4"
        },
        {
            "bufferView" : 14,
            "componentType" : 5126,
            "count" : 180,
            "max" : [
                7.5
            ],
            "min" : [
                0.041666666666666664
            ],
            "type" : "SCALAR"
        },
        {
            "bufferView" : 15,
            "componentType" : 5126,
            "count" : 180,
            "type" : "VEC3"
        },
        {
            "bufferView" : 16,
            "componentType" : 5126,
            "count" : 180,
            "type" : "VEC4"
        },
        {
            "bufferView" : 17,
            "componentType" : 5126,
            "count" : 180,
            "type" : "VEC3"
        },
        {
            "bufferView" : 18,
            "componentType" : 5126,
            "count" : 180,
            "type" : "VEC3"
        },
        {
            "bufferView" : 19,
            "componentType" : 5126,
            "count" : 180,
            "type" : "VEC4"
        },
        {
            "bufferView" : 20,
            "componentType" : 5126,
            "count" : 180,
            "type" : "VEC3"
        },
        {
            "bufferView" : 21,
            "componentType" : 5126,
            "count" : 180,
            "type" : "VEC3"
        },
        {
            "bufferView" : 22,
            "componentType" : 5126,
            "count" : 180,
            "type" : "VEC4"
        },
        {
            "bufferView" : 23,
            "componentType" : 5126,
            "count" : 180,
            "type" : "VEC3"
        },
        {
            "bufferView" : 24,
            "componentType" : 5126,
            "count" : 180,
            "type" : "VEC3"
        },
        {
            "bufferView" : 25,
            "componentType" : 5126,
            "count" : 180,
            "type" : "VEC4"
        },
        {
            "bufferView" : 26,
            "componentType" : 5126,
            "count" : 180,
            "type" : "VEC3"
        }
    ],
    "bufferViews" : [
        {
            "buffer" : 0,
            "byteLength" : 4896,
            "byteOffset" : 0
        },
        {
            "buffer" : 0,
            "byteLength" : 4896,
            "byteOffset" : 4896
        },
        {
            "buffer" : 0,
            "byteLength" : 3264,
            "byteOffset" : 9792
        },
        {
            "buffer" : 0,
            "byteLength" : 3264,
            "byteOffset" : 13056
        },
        {
            "buffer" : 0,
            "byteLength" : 6528,
            "byteOffset" : 16320
        },
        {
            "buffer" : 0,
            "byteLength" : 2004,
            "byteOffset" : 22848
        },
        {
            "buffer" : 0,
            "byteLength" : 1089489,
            "byteOffset" : 24852
        },
        {
            "buffer" : 0,
            "byteLength" : 3072,
            "byteOffset" : 1114344
        },
        {
            "buffer" : 0,
            "byteLength" : 3072,
            "byteOffset" : 1117416
        },
        {
            "buffer" : 0,
            "byteLength" : 2048,
            "byteOffset" : 1120488
        },
        {
            "buffer" : 0,
            "byteLength" : 2048,
            "byteOffset" : 1122536
        },
        {
            "buffer" : 0,
            "byteLength" : 4096,
            "byteOffset" : 1124584
        },
        {
            "buffer" : 0,
            "byteLength" : 768,
            "byteOffset" : 1128680
        },
        {
            "buffer" : 0,
            "byteLength" : 256,
            "byteOffset" : 1129448
        },
        {
            "buffer" : 0,
            "byteLength" : 720,
            "byteOffset" : 1129704
        },
        {
            "buffer" : 0,
            "byteLength" : 2160,
            "byteOffset" : 1130424
        },
        {
            "buffer" : 0,
            "byteLength" : 2880,
            "byteOffset" : 1132584
        },
        {
            "buffer" : 0,
            "byteLength" : 2160,
            "byteOffset" : 1135464
        },
        {
            "buffer" : 0,
            "byteLength" : 2160,
            "byteOffset" : 1137624
        },
        {
            "buffer" : 0,
            "byteLength" : 2880,
            "byteOffset" : 1139784
        },
        {
            "buffer" : 0,
            "byteLength" : 2160,
            "byteOffset" : 1142664
        },
        {
            "buffer" : 0,
            "byteLength" : 2160,
            "byteOffset" : 1144824
        },
        {
            "buffer" : 0,
            "byteLength" : 2880,
            "byteOffset" : 1146984
        },
        {
            "buffer" : 0,
            "byteLength" : 2160,
            "byteOffset" : 1149864
        },
        {
            "buffer" : 0,
            "byteLength" : 2160,
            "byteOffset" : 1152024
        },
        {
            "buffer" : 0,
            "byteLength" : 2880,
            "byteOffset" : 1154184
        },
        {
            "buffer" : 0,
            "byteLength" : 2160,
            "byteOffset" : 1157064
        }
    ],
    "buffers" : [
        {
            "byteLength" : 1159224,
            "uri" : "data:application/octet-stream;base64,"
        }
    ]
}
